<?xml version="1.0" standalone="no"?>
<!DOCTYPE svg PUBLIC "-//W3C//DTD SVG 1.1//EN" "http://www.w3.org/Graphics/SVG/1.1/DTD/svg11.dtd" >
<svg xmlns="http://www.w3.org/2000/svg">
<metadata>Generated by IcoMoon</metadata>
<defs>
<font id="ELASTO-UI" horiz-adv-x="1024">
<font-face units-per-em="1024" ascent="960" descent="-64" />
<missing-glyph horiz-adv-x="1024" />
<glyph unicode="&#x20;" horiz-adv-x="512" d="" />
<glyph unicode="&#xe900;" glyph-name="cart" d="M957.75 698.577c-3.115 0.269-5.615 0.365-8.308 0.5l-722.853 42.243-16.916 92.45c-0.202 1.091-0.877 1.928-1.19 2.966-0.589 1.974-1.272 3.796-2.238 5.575-0.887 1.635-1.875 3.079-3.034 4.498-1.221 1.505-2.49 2.832-3.981 4.067-1.466 1.224-2.976 2.216-4.647 3.135-1.599 0.88-3.187 1.594-4.95 2.168-1.964 0.649-3.923 0.995-6.012 1.214-1.038 0.111-1.94 0.608-3.007 0.608h-111.692c-16.308 0-29.538-13.231-29.538-29.538s13.231-29.538 29.538-29.538h87.070l103.998-568.341c-33.505-16.671-56.798-50.925-56.798-90.812 0-56.115 45.654-101.769 101.75-101.769s101.75 45.654 101.75 101.769c0 15.286-3.632 29.651-9.7 42.673h272.072c-6.067-13.022-9.7-27.387-9.7-42.673 0-56.115 45.654-101.769 101.75-101.769s101.75 45.654 101.75 101.769c0 56.096-45.654 101.75-101.75 101.75h-443.070l-11.274 61.615h526.555c53.365 0 88.846 43 100.904 88l49.827 272.288c0.231 1.154 0.385 2.327 0.481 3.538 1.192 16.077-10.731 30.154-26.788 31.615zM261.183 552.276l131.995-3.957 6.817-72.543-125.173 1.966-13.639 74.534zM432.849 547.13l125.844-3.774v-70.070l-119.079 1.87-6.764 71.974zM558.692 582.776l-129.558 3.885-7.904 84.115 137.462-8.038v-79.962zM598.077 660.435l151.387-8.851-9.091-74.255-142.296 4.267v78.839zM558.692 433.892v-71.68h-108.466l-6.906 73.49 115.373-1.81zM598.077 433.274l124.421-1.954-8.462-69.108h-115.959v71.063zM598.077 472.668v69.507l137.488-4.12-8.255-67.418-129.233 2.031zM775.079 536.87l125.087-3.75-11.851-65.010-121.418 1.906 8.183 66.853zM907.344 572.325l-127.454 3.822 8.954 73.135 131.791-7.704c-3.644-17.399-7.921-40.075-13.291-69.252zM381.454 673.101l8.010-85.25-135.534 4.062-16.397 89.603 143.921-8.416zM347.615 139.769c0-23.538-19.135-42.692-42.673-42.692s-42.673 19.154-42.673 42.692 19.135 42.673 42.673 42.673 42.673-19.135 42.673-42.673zM803.788 139.769c0-23.538-19.135-42.692-42.673-42.692s-42.673 19.154-42.673 42.692 19.135 42.673 42.673 42.673 42.673-19.135 42.673-42.673zM282.050 438.236l121.651-1.911 6.964-74.113h-114.704l-13.911 76.024zM833.327 362.212h-79.63l8.385 68.486 119.070-1.868-4.498-24.675c-3.923-14.519-18.019-41.942-43.327-41.942z" />
<glyph unicode="&#xe901;" glyph-name="bag" d="M893.385 678.962c-1 15.577-13.885 27.692-29.5 27.692h-156.346v46.192c0 92.5-87.731 167.769-195.538 167.769s-195.538-75.269-195.538-167.769v-46.192h-156.346c-15.615 0-28.5-12.115-29.5-27.692l-41.962-672.192c-0.5-8.154 2.385-16.115 7.962-22.077 5.577-5.923 13.385-9.308 21.538-9.308h787.692c8.154 0 15.962 3.385 21.538 9.308 5.577 5.962 8.462 13.923 7.962 22.077l-41.962 672.192zM375.538 752.846c0 59.923 61.231 108.692 136.462 108.692s136.462-48.769 136.462-108.692v-46.192h-272.923v46.192zM316.462 647.577v-64.154c0-16.308 13.231-29.538 29.538-29.538s29.538 13.231 29.538 29.538v64.154h272.923v-64.154c0-16.308 13.231-29.538 29.538-29.538s29.538 13.231 29.538 29.538v64.154h128.577l25.594-409.615h-699.418l25.594 409.615h128.577zM149.577 34.462l10.255 164.115h704.337l10.255-164.115h-724.846z" />
<glyph unicode="&#xe902;" glyph-name="search" d="M588.654 920.615c-218.308 0-395.923-177.615-395.923-395.942 0-98.55 36.423-188.594 96.209-257.964l-240.901-240.901c-11.538-11.538-11.538-30.231 0-41.769 5.769-5.769 13.308-8.654 20.885-8.654s15.115 2.885 20.885 8.654l240.899 240.899c69.365-59.786 159.406-96.207 257.947-96.207 218.346 0 395.962 177.615 395.962 395.942s-177.615 395.942-395.962 395.942zM588.654 187.808c-185.731 0-336.846 151.115-336.846 336.865s151.115 336.865 336.846 336.865c185.769 0 336.885-151.115 336.885-336.865s-151.115-336.865-336.885-336.865z" />
<glyph unicode="&#xe903;" glyph-name="scale-plus" d="M588.654 920.615c-218.308 0-395.923-177.615-395.923-395.962 0-98.541 36.421-188.582 96.207-257.947l-240.899-240.899c-11.538-11.538-11.538-30.231 0-41.769 5.769-5.769 13.308-8.654 20.885-8.654s15.115 2.885 20.885 8.654l240.899 240.899c69.365-59.786 159.406-96.207 257.947-96.207 218.346 0 395.962 177.615 395.962 395.923 0 218.346-177.615 395.962-395.962 395.962zM588.654 187.808c-185.731 0-336.846 151.115-336.846 336.846 0 185.769 151.115 336.885 336.846 336.885 185.769 0 336.885-151.115 336.885-336.885 0-185.731-151.115-336.846-336.885-336.846zM746.192 554.192h-128v128c0 16.308-13.231 29.538-29.538 29.538s-29.538-13.231-29.538-29.538v-128h-128c-16.308 0-29.538-13.231-29.538-29.538s13.231-29.538 29.538-29.538h128v-128c0-16.308 13.231-29.538 29.538-29.538s29.538 13.231 29.538 29.538v128h128c16.308 0 29.538 13.231 29.538 29.538s-13.231 29.538-29.538 29.538z" />
<glyph unicode="&#xe904;" glyph-name="map-maker" d="M512 723.692c-86.885 0-157.538-70.673-157.538-157.538s70.654-157.538 157.538-157.538 157.538 70.673 157.538 157.538-70.654 157.538-157.538 157.538zM512 448c-65.154 0-118.154 53-118.154 118.154s53 118.154 118.154 118.154 118.154-53 118.154-118.154-53-118.154-118.154-118.154zM513.192 920.615c-0.423 0.019-0.769 0.019-1.192 0-0.423 0.019-0.769 0.038-1.192 0-197.885-0.981-358.538-162.096-358.538-359.981 0-93.942 40.885-171.519 75.423-220.269 0.192-0.327 0.423-0.654 0.692-0.981l259.192-351.981c5.538-7.558 15.692-12.019 25.077-12.019s18.231 4.462 23.769 12.019l259.192 351.981c0.269 0.327 0.5 0.654 0.692 0.981 34.538 48.75 75.423 126.327 75.423 220.269 0 197.885-160.654 359-358.538 359.981zM747.692 373.923c0-0.019 0-0.019 0-0.019l-235.692-320.058-235.692 320.058c0 0 0 0 0 0.019-29.654 41.692-64.962 107.923-64.962 186.712 0 165.712 134.808 300.558 300.654 300.904 165.846-0.346 300.654-135.192 300.654-300.904 0-78.788-35.308-145.019-64.962-186.712z" />
<glyph unicode="&#xe905;" glyph-name="map-maker2" d="M984.050 29.368c-0.089 0.952 0.212 1.849 0.026 2.805l-72.115 373.442c-0.207 1.067-0.868 1.88-1.178 2.897-0.572 1.873-1.236 3.601-2.151 5.296-0.966 1.82-2.060 3.421-3.356 4.974-1.055 1.257-2.135 2.373-3.382 3.438-1.668 1.43-3.409 2.594-5.358 3.615-1.418 0.75-2.829 1.349-4.37 1.863-2.036 0.671-4.079 1.058-6.274 1.269-1.012 0.106-1.892 0.591-2.93 0.591h-161.481l11.096 15.096c0.308 0.385 0.577 0.769 0.846 1.154 26.885 37.885 58.962 98.5 58.962 172.173 0 154.442-125.192 280.173-279.385 280.981-0.385 0-0.692 0-1 0s-0.615 0-1 0c-154.192-0.808-279.385-126.538-279.385-280.981 0-73.673 32.077-134.288 58.962-172.173 0.269-0.385 0.538-0.769 0.846-1.154l11.096-15.096h-161.481c-1.072 0-1.978-0.5-3.019-0.611-2.118-0.214-4.091-0.582-6.065-1.224-1.623-0.534-3.101-1.161-4.587-1.954-1.897-1-3.591-2.132-5.219-3.519-1.269-1.079-2.365-2.209-3.435-3.483-1.296-1.553-2.392-3.156-3.358-4.978-0.909-1.685-1.57-3.406-2.139-5.269-0.31-1.019-0.971-1.832-1.178-2.904l-72.115-373.442c-0.185-0.957 0.115-1.853 0.026-2.805-0.096-0.964-0.565-1.8-0.565-2.791 0-1.082 0.502-1.998 0.615-3.050 0.214-1.998 0.56-3.861 1.161-5.74 0.579-1.822 1.279-3.483 2.185-5.135 0.906-1.663 1.906-3.151 3.111-4.613 1.209-1.466 2.486-2.738 3.952-3.945 1.442-1.195 2.93-2.192 4.601-3.101 1.745-0.954 3.519-1.654 5.454-2.245 1-0.308 1.793-0.966 2.844-1.171 1.899-0.361 3.76-0.526 5.582-0.531 0.012 0 0.022-0.007 0.034-0.007h886.154c0.012 0 0.022 0.007 0.034 0.007 1.822 0.005 3.683 0.171 5.582 0.531 1.050 0.204 1.844 0.863 2.844 1.171 1.935 0.591 3.709 1.291 5.454 2.245 1.671 0.909 3.159 1.906 4.601 3.101 1.466 1.207 2.743 2.478 3.952 3.945 1.204 1.462 2.204 2.95 3.111 4.613 0.906 1.651 1.606 3.312 2.185 5.135 0.601 1.88 0.947 3.743 1.161 5.74 0.113 1.053 0.615 1.969 0.615 3.050 0 0.99-0.469 1.827-0.565 2.791zM290.692 617.981c0 122.192 99.231 221.635 221.308 221.904 122.077-0.269 221.308-99.712 221.308-221.904 0-57.635-25.692-106.308-47.5-137.231-0.077-0.096-0.154-0.173-0.231-0.269l-173.577-236.135-173.577 236.135c-0.077 0.096-0.154 0.173-0.231 0.269-21.808 30.923-47.5 79.596-47.5 137.231zM104.707 56.115l60.709 314.365h180.531l141.745-192.827c5.577-7.558 15.423-12.038 24.808-12.038s18.231 4.481 23.808 12.038l141.745 192.827h180.531l60.709-314.365h-814.587zM512 493.404c68.615 0 124.423 55.885 124.423 124.577s-55.808 124.577-124.423 124.577-124.423-55.885-124.423-124.577 55.808-124.577 124.423-124.577zM512 703.173c46.885 0 85.038-38.212 85.038-85.192s-38.154-85.192-85.038-85.192-85.038 38.212-85.038 85.192 38.154 85.192 85.038 85.192z" />
<glyph unicode="&#xe906;" glyph-name="map-maker3" d="M980.762 131.058c0.904 1.702 1.661 3.368 2.219 5.212 0.534 1.75 0.815 3.488 1.017 5.339 0.221 2.014 0.257 3.957 0.055 6.010-0.089 0.918 0.202 1.784 0.024 2.709l-72.115 373.442c-0.262 1.341-1.060 2.38-1.486 3.639-0.413 1.243-0.387 2.536-0.976 3.745-0.298 0.611-0.853 0.971-1.188 1.55-1.072 1.885-2.411 3.435-3.841 5.014-1.151 1.267-2.202 2.543-3.536 3.577-1.613 1.26-3.387 2.123-5.233 3.022-1.606 0.784-3.118 1.579-4.834 2.063-1.728 0.483-3.493 0.587-5.322 0.743-2.12 0.195-4.163 0.317-6.308 0.038-0.647-0.084-1.24 0.137-1.892 0.012-1.296-0.25-2.291-1.038-3.51-1.445-1.272-0.425-2.601-0.401-3.837-1.017l-109.332-53.445c17.435 34.615 31.716 77.671 31.716 126.714 0 154.442-125.192 280.173-279.385 280.981-0.385 0-0.692 0-1 0s-0.615 0-1 0c-154.192-0.808-279.385-126.538-279.385-280.981 0-48.505 13.966-91.171 31.137-125.594l-134.675-65.829c-0.562-0.276-0.894-0.791-1.43-1.096-2.036-1.144-3.75-2.584-5.454-4.18-1.151-1.079-2.3-2.070-3.255-3.3-1.219-1.575-2.082-3.322-2.971-5.151-0.853-1.74-1.644-3.413-2.144-5.284-0.183-0.69-0.647-1.219-0.784-1.93l-72.115-373.442c-0.18-0.94 0.113-1.82 0.024-2.755-0.202-2.010-0.163-3.95 0.055-5.99 0.219-1.99 0.584-3.844 1.19-5.719 0.291-0.918 0.19-1.863 0.577-2.767 0.498-1.159 1.305-2.048 1.925-3.108 0.548-0.937 1.034-1.846 1.68-2.716 1.844-2.488 3.969-4.649 6.413-6.401 0.315-0.228 0.536-0.541 0.861-0.755 2.928-1.933 6.204-3.161 9.615-3.954 0.38-0.089 0.659-0.356 1.043-0.43 1.885-0.358 3.733-0.524 5.543-0.529 0.024 0 0.048-0.010 0.072-0.010 0.005 0 0.007 0.002 0.012 0.002 0.010 0 0.017-0.002 0.026-0.002 3.791 0 7.404 0.863 10.805 2.219 0.267 0.103 0.546 0.053 0.81 0.166l265.096 113.613 323.865-114.305c0.224-0.079 0.447-0.043 0.671-0.115 2.952-0.969 6.022-1.577 9.175-1.577 3.625 0 7.101 0.863 10.425 2.132 0.404 0.151 0.827 0.082 1.228 0.252l275.692 118.154c0.887 0.38 1.454 1.125 2.284 1.579 1.76 0.962 3.303 2.048 4.808 3.322 1.462 1.236 2.776 2.478 3.954 3.947 1.175 1.459 2.103 2.976 2.986 4.632zM167.245 379.954l126.341 61.757 54.067-73.553-20.291-198.673-218.877-93.805 58.76 304.274zM366.796 168.224l15.594 152.683 105.303-143.252c5.577-7.558 15.423-12.038 24.808-12.038s18.231 4.481 23.808 12.038l94.712 128.841 24.526-240.183-288.75 101.911zM695.19 65.5l-29.435 288.25 29.111 39.603 166.411 81.346 60.286-312.185-226.373-97.014zM512 839.885c122.077-0.269 221.308-99.712 221.308-221.904 0-57.635-25.692-106.308-47.5-137.231-0.077-0.096-0.154-0.173-0.231-0.269l-173.577-236.135-173.577 236.135c-0.077 0.096-0.154 0.173-0.231 0.269-2.356 3.339-4.762 6.978-7.171 10.721-0.178 0.411-0.13 0.853-0.329 1.26-0.613 1.255-1.685 2.065-2.445 3.19-18.969 30.647-37.555 73.053-37.555 122.060 0 122.192 99.231 221.635 221.308 221.904zM512 493.404c68.615 0 124.423 55.885 124.423 124.577s-55.808 124.577-124.423 124.577-124.423-55.885-124.423-124.577 55.808-124.577 124.423-124.577zM512 703.173c46.885 0 85.038-38.212 85.038-85.192s-38.154-85.192-85.038-85.192-85.038 38.212-85.038 85.192 38.154 85.192 85.038 85.192z" />
<glyph unicode="&#xe907;" glyph-name="phone" d="M964.808 202.385c-15.885 25.923-40.538 56.115-69.5 85.038-20.962 20.962-92.923 89.308-139.192 89.308-14.846 0-24.269-6.346-29.538-11.615l-61.615-61.577c-1.038-1.038-4.346-2.231-10.308-2.231-34.192 0-106.692 37.846-179.115 110.231-96.577 96.615-119.808 177.615-108 189.423l61.538 61.577c5.308 5.308 11.654 14.731 11.654 29.538 0.038 46.308-68.346 118.269-89.308 139.231-20.923 20.962-92.846 89.308-139.192 89.308-14.808 0-24.231-6.308-29.538-11.615l-123.192-123.192c-36.385-36.346-23.115-107.462 39.462-211.346 54.308-90.154 140.269-195.846 241.962-297.538 180.385-180.385 363.038-301.577 454.5-301.538 22.769 0 41.038 6.769 54.385 20.115l123.192 123.192c26.654 26.654 0.423 69.577-8.192 83.692zM808.038 37.269c-1.385-1.346-5.385-2.808-12.615-2.808-62.269 0-228.077 99.615-412.731 284.231-98.423 98.423-181.192 200.077-233.115 286.269-58.5 97.077-53 134.385-48.308 139.077l115.962 115.962c15.115-5.846 50.154-28.154 92.423-70.462s64.615-77.308 70.462-92.423l-54.346-54.385c-56.654-56.654 16.269-181.192 108-272.962 78.692-78.692 163.346-127.538 220.885-127.538 26.885 0 43.154 10.615 52.077 19.538l54.385 54.346c15.115-5.846 50.115-28.192 92.423-70.462 42.269-42.269 64.615-77.308 70.462-92.423l-115.962-115.962z" />
<glyph unicode="&#xe908;" glyph-name="phone-call" d="M721.077 359.308c-14.577 0-23.846-6.231-29.077-11.462l-58.423-58.462c-0.462-0.462-2.962-1.692-8.731-1.692-32.192 0-100.538 35.808-168.923 104.231-91.923 91.885-112.192 168-102.538 177.654l58.462 58.423c38.538 38.538-29.654 118.231-73.731 162.308-20 20-88.654 85.192-133.192 85.192-14.577 0-23.846-6.231-29.077-11.462l-116.923-116.923c-35.077-35.077-22.577-103.192 37.231-202.423 51.615-85.692 133.231-186.077 229.846-282.692 142.654-142.654 331.692-286.615 432.423-286.615h0.038c27.385 0 43.769 10.615 52.654 19.538l116.923 116.923c38.538 38.5-29.654 118.192-73.731 162.269-20 20-88.654 85.192-133.231 85.192zM769.346 36.692c-0.846-0.846-4.077-2.231-10.923-2.231-58.808 0-215.731 94.385-390.654 269.308-93.308 93.308-171.808 189.692-221.038 271.385-55 91.346-50.308 125.923-46.038 130.192l109.346 109.346c14.577-5.962 47.231-27.077 86.308-66.154 39.115-39.115 60.192-71.769 66.154-86.308l-50.885-50.885c-54.5-54.577 14.962-173.654 102.538-261.192 74.923-74.962 155.654-121.538 210.692-121.538 26 0 41.808 10.308 50.5 19l50.885 50.885c14.538-5.962 47.192-27.038 86.308-66.154 39.077-39.115 60.192-71.731 66.154-86.308l-109.346-109.346zM884.846 820.846c-64.308 64.346-149.923 99.769-241.038 99.769-0.038 0-0.077 0-0.077 0-16.308 0-29.538-13.231-29.538-29.538s13.231-29.538 29.538-29.538c0.038 0 0.038 0 0.077 0 75.346 0 146.115-29.269 199.269-82.462 53.192-53.192 82.462-123.962 82.462-199.346 0-16.308 13.231-29.538 29.538-29.538s29.538 13.231 29.538 29.538c0.038 91.154-35.423 176.769-99.769 241.115zM604.769 744.731c0.038 0 0.038 0 0.077 0 54.538 0 105.731-21.192 144.231-59.654 38.462-38.5 59.654-89.731 59.654-144.308 0-16.308 13.231-29.538 29.538-29.538s29.538 13.231 29.538 29.538c0.038 70.346-27.308 136.423-76.962 186.077-49.654 49.615-115.692 76.962-186 76.962-0.038 0-0.077 0-0.077 0-16.308 0-29.538-13.231-29.538-29.538s13.231-29.538 29.538-29.538zM565.808 627.923c0.038 0 0.038 0 0.077 0 33.692 0 65.385-13.115 89.154-36.885 23.808-23.808 36.885-55.5 36.885-89.231 0-16.308 13.231-29.538 29.538-29.538s29.538 13.231 29.538 29.538c0.038 49.5-19.231 96.038-54.192 131-34.923 34.962-81.423 54.192-130.923 54.192-0.038 0-0.077 0-0.077 0-16.308 0-29.538-13.231-29.538-29.538s13.231-29.538 29.538-29.538z" />
<glyph unicode="&#xe909;" glyph-name="mail" d="M914.885 802.462h-805.769c-38.462 0-69.731-33.231-69.731-74.077v-560.769c0-40.846 31.269-74.077 69.731-74.077h805.769c38.462 0 69.731 33.231 69.731 74.077v560.769c0 40.846-31.269 74.077-69.731 74.077zM617.026 447.988l308.512 222.654v-445.286l-308.512 222.632zM914.885 743.385c2.108 0 4.245-1.274 6.101-3.178l-408.986-295.166-408.986 295.166c1.856 1.904 3.993 3.178 6.101 3.178h805.769zM98.462 225.358v445.284l308.493-222.639-308.493-222.644zM109.115 152.615c-2.108 0-4.245 1.279-6.101 3.18l354.411 255.781 37.305-26.923c0.885-0.642 1.909-0.904 2.841-1.433 0.911-0.517 1.762-0.954 2.716-1.37 3.779-1.651 7.7-2.774 11.673-2.774 0.014 0 0.024 0.010 0.038 0.010s0.024-0.010 0.038-0.010c3.974 0 7.894 1.123 11.673 2.774 0.954 0.416 1.805 0.853 2.716 1.37 0.933 0.529 1.957 0.791 2.841 1.433l37.286 26.911 354.43-255.772c-1.856-1.901-3.993-3.178-6.101-3.178h-805.769z" />
<glyph unicode="&#xe90a;" glyph-name="user" d="M661.803 390.478c82.002 50.457 136.966 140.695 136.966 243.733 0 157.923-128.654 286.404-286.769 286.404s-286.769-128.481-286.769-286.404c0-103.038 54.964-193.276 136.966-243.733-177.065-39.666-301.313-148.022-301.313-279.151 0-107.308 283.577-135.942 451.115-135.942s451.115 28.635 451.115 135.942c0 131.13-124.248 239.486-301.313 279.151zM284.308 634.212c0 125.346 102.154 227.327 227.692 227.327s227.692-101.981 227.692-227.327-102.154-227.308-227.692-227.308-227.692 101.962-227.692 227.308zM512 34.462c-240.837 0-385 50.805-392.022 77.065 0.183 130.312 175.981 236.3 392.022 236.3 216.019 0 391.803-105.969 392.019-236.262-6.846-26.24-151.024-77.103-392.019-77.103z" />
<glyph unicode="&#xe90b;" glyph-name="user-circle" d="M984.615 448c0 260.596-212 472.615-472.615 472.615s-472.615-212.019-472.615-472.615c0-133.262 55.659-253.584 144.685-339.584 2.084-2.714 4.553-4.913 7.442-6.767 84.332-78.094 196.752-126.264 320.488-126.264s236.156 48.171 320.488 126.264c2.889 1.853 5.358 4.053 7.442 6.767 89.026 86 144.685 206.322 144.685 339.584zM512 861.538c228.038 0 413.538-185.519 413.538-413.538 0-96.688-33.606-185.534-89.413-256.034-25.62 82.623-98.762 147.303-198.031 177.065 54.099 39.151 89.483 102.582 89.483 174.257 0 118.712-96.692 215.288-215.577 215.288s-215.577-96.577-215.577-215.288c0-71.675 35.385-135.106 89.483-174.257-99.269-29.762-172.411-94.442-198.031-177.065-55.808 70.5-89.413 159.346-89.413 256.034 0 228.019 185.5 413.538 413.538 413.538zM355.5 543.288c0 86.135 70.192 156.212 156.5 156.212s156.5-70.077 156.5-156.212-70.192-156.212-156.5-156.212-156.5 70.077-156.5 156.212zM237.519 139.541c8.88 108.305 123.731 188.459 274.481 188.459s265.601-80.154 274.481-188.459c-73.103-65.125-169.099-105.079-274.481-105.079s-201.377 39.954-274.481 105.079z" />
<glyph unicode="&#xe90c;" glyph-name="card" d="M915.692 760.538h-807.385c-38 0-68.923-30.923-68.923-68.923v-487.231c0-38 30.923-68.923 68.923-68.923h807.385c38 0 68.923 30.923 68.923 68.923v487.231c0 38-30.923 68.923-68.923 68.923zM108.308 701.462h807.385c5.423 0 9.846-4.423 9.846-9.846v-84.019h-827.077v84.019c0 5.423 4.423 9.846 9.846 9.846zM915.692 194.538h-807.385c-5.423 0-9.846 4.423-9.846 9.846v285h827.077v-285c0-5.423-4.423-9.846-9.846-9.846z" />
<glyph unicode="&#xe90d;" glyph-name="cards" d="M922.923 610.308h-88.764l-25.428 144.077c-5.846 33.462-38.192 55.808-71.346 50.038l-647.038-114.115c-33.423-5.885-55.846-37.923-49.923-71.385l69-391.231c2.846-16.192 11.808-30.346 25.269-39.808 10.5-7.346 22.692-11.192 35.231-11.192 3.615 0 7.231 0.308 10.846 0.962l23.577 4.163v-29.587c0-33.962 27.615-61.577 61.577-61.577h657c33.962 0 61.615 27.615 61.615 61.577v396.5c0 33.962-27.654 61.577-61.615 61.577zM925.462 548.731v-57.923h-661.805l2.267 60.423 659.538-2.5zM167.577 237.923l-57.846 328-9.115 66.231 649.962 112 23.611-133.846h-508.264c-33.962 0-61.577-27.615-61.577-61.577v-305.897l-36.769-4.911zM922.923 149.731l-659.5 2.5v234h662.038v-234c0-1.385-1.154-2.5-2.538-2.5z" />
<glyph unicode="&#xe90e;" glyph-name="contactless-card" d="M915.692 760.538h-807.385c-38 0-68.923-30.923-68.923-68.923v-487.231c0-38 30.923-68.923 68.923-68.923h807.385c38 0 68.923 30.923 68.923 68.923v487.231c0 38-30.923 68.923-68.923 68.923zM925.538 204.385c0-5.423-4.423-9.846-9.846-9.846h-807.385c-5.423 0-9.846 4.423-9.846 9.846v487.231c0 5.423 4.423 9.846 9.846 9.846h807.385c5.423 0 9.846-4.423 9.846-9.846v-487.231zM278.5 565.654h-59.769c-33.462 0-60.692-27.212-60.692-60.673v-59.808c0-33.462 27.231-60.673 60.692-60.673h59.769c33.462 0 60.692 27.212 60.692 60.673v59.808c0 33.462-27.231 60.673-60.692 60.673zM299.808 445.173c0-11.731-9.577-21.288-21.308-21.288h-59.769c-11.731 0-21.308 9.558-21.308 21.288v59.808c0 11.731 9.577 21.288 21.308 21.288h59.769c11.731 0 21.308-9.558 21.308-21.288v-59.808zM721.808 576.962c-7.692 7.692-20.154 7.692-27.846 0s-7.692-20.154 0-27.846c55.731-55.75 55.731-146.481 0-202.231-7.692-7.692-7.692-20.154 0-27.846 3.846-3.846 8.885-5.769 13.923-5.769s10.077 1.923 13.923 5.769c71.077 71.115 71.077 186.808 0 257.923zM664.269 548.192c-7.692 7.692-20.154 7.692-27.846 0s-7.692-20.154 0-27.846c19.346-19.346 30-45.038 30-72.346s-10.654-53-30-72.346c-7.692-7.692-7.692-20.154 0-27.846 3.846-3.846 8.885-5.769 13.923-5.769s10.077 1.923 13.923 5.769c26.769 26.769 41.538 62.365 41.538 100.192s-14.769 73.423-41.538 100.192zM606.769 519.442c-7.692 7.692-20.154 7.692-27.846 0s-7.692-20.173 0-27.846c11.654-11.654 18.077-27.135 18.077-43.596s-6.423-31.942-18.077-43.596c-7.692-7.673-7.692-20.154 0-27.846 3.846-3.846 8.885-5.769 13.923-5.769s10.077 1.923 13.923 5.769c19.115 19.096 29.615 44.462 29.615 71.442s-10.5 52.346-29.615 71.442zM751.462 605.712c-7.692-7.692-7.692-20.154 0-27.846 34.731-34.731 53.846-80.846 53.846-129.865s-19.115-95.135-53.846-129.865c-7.692-7.692-7.692-20.154 0-27.846 3.846-3.846 8.885-5.769 13.923-5.769s10.077 1.923 13.923 5.769c42.154 42.154 65.385 98.173 65.385 157.712s-23.231 115.558-65.385 157.712c-7.692 7.692-20.154 7.692-27.846 0zM284.692 290.462h-106.962c-10.885 0-19.692-8.808-19.692-19.692s8.808-19.692 19.692-19.692h106.962c10.885 0 19.692 8.808 19.692 19.692s-8.808 19.692-19.692 19.692zM504.846 290.462h-143.231c-10.885 0-19.692-8.808-19.692-19.692s8.808-19.692 19.692-19.692h143.231c10.885 0 19.692 8.808 19.692 19.692s-8.808 19.692-19.692 19.692z" />
<glyph unicode="&#xe90f;" glyph-name="cards2" d="M922.923 610.308h-88.764l-25.428 144.077c-5.846 33.462-38.115 55.808-71.346 50.038l-647.038-114.115c-33.423-5.885-55.846-37.923-49.923-71.385l69-391.231c2.846-16.192 11.808-30.346 25.269-39.808 10.5-7.346 22.692-11.192 35.231-11.192 3.615 0 7.231 0.308 10.846 0.962l23.577 4.163v-29.587c0-33.962 27.615-61.577 61.577-61.577h657c33.962 0 61.615 27.615 61.615 61.577v396.5c0 33.962-27.654 61.577-61.615 61.577zM750.577 744.154l11.291-64-396.195-69.846h-99.75c-20.916 0-39.365-10.522-50.5-26.505l-105.565-18.606-0.127 0.726-9.115 66.231 649.962 112zM167.577 237.923l-39.724 225.24 76.493 13.49v-233.82l-36.769-4.911zM925.462 152.231c0-1.385-1.154-2.5-2.538-2.5l-659.5 2.5v332.385l2.5 66.615 659.538-2.5v-396.5zM355.769 295.115h48.654c29.269 0 53.077 23.808 53.077 53.077v48.654c0 29.231-23.808 53.038-53.077 53.038h-48.654c-29.231 0-53.038-23.808-53.038-53.038v-48.654c0-29.269 23.808-53.077 53.038-53.077zM342.115 396.846c0 7.538 6.115 13.654 13.654 13.654h48.654c7.538 0 13.692-6.115 13.692-13.654v-48.654c0-7.538-6.154-13.692-13.692-13.692h-48.654c-7.538 0-13.654 6.154-13.654 13.692v48.654zM739.923 270.808c-7.692-7.692-7.692-20.154 0-27.846 3.846-3.846 8.885-5.769 13.923-5.769s10.077 1.923 13.923 5.769c59.308 59.269 59.308 155.769 0 215.038-7.692 7.692-20.154 7.692-27.846 0s-7.692-20.154 0-27.846c43.923-43.923 43.923-115.423 0-159.346zM693.115 294.192c-7.692-7.692-7.692-20.154 0-27.846 3.846-3.846 8.885-5.769 13.923-5.769s10.077 1.923 13.923 5.769c46.385 46.385 46.385 121.885 0 168.269-7.692 7.692-20.154 7.692-27.846 0s-7.692-20.154 0-27.846c31.038-31.038 31.038-81.538 0-112.577zM646.308 289.731c3.846-3.846 8.885-5.769 13.923-5.769s10.077 1.923 13.923 5.769c33.462 33.5 33.462 88 0 121.462-7.692 7.692-20.154 7.692-27.846 0s-7.692-20.154 0-27.846c18.115-18.115 18.115-47.615 0-65.769-7.692-7.692-7.692-20.192 0-27.846zM829.423 350.462c0-38.885-15.154-75.5-42.731-103.077-7.692-7.692-7.692-20.154 0-27.846 3.846-3.846 8.885-5.769 13.923-5.769s10.077 1.923 13.923 5.769c35 35 54.269 81.5 54.269 130.923 0 49.462-19.269 95.923-54.269 130.923-7.692 7.692-20.154 7.692-27.846 0s-7.692-20.154 0-27.846c27.577-27.538 42.731-64.154 42.731-103.077zM322.423 186.577h87.038c10.885 0 19.692 8.808 19.692 19.692s-8.808 19.692-19.692 19.692h-87.038c-10.885 0-19.692-8.808-19.692-19.692s8.808-19.692 19.692-19.692zM472.038 186.577h116.577c10.885 0 19.692 8.808 19.692 19.692s-8.808 19.692-19.692 19.692h-116.577c-10.885 0-19.692-8.808-19.692-19.692s8.808-19.692 19.692-19.692z" />
<glyph unicode="&#xe910;" glyph-name="contactless" d="M529.654 823.346c-11.577 11.577-30.269 11.5-41.769 0-11.538-11.538-11.538-30.231 0-41.769 89.231-89.192 138.385-207.654 138.385-333.577s-49.154-244.385-138.385-333.577c-11.538-11.538-11.538-30.231 0-41.769 5.769-5.769 13.308-8.654 20.885-8.654 7.538 0 15.115 2.885 20.885 8.654 100.385 100.346 155.692 233.615 155.692 375.346s-55.308 275-155.692 375.346zM310.538 734.731c-11.538-11.538-11.538-30.231 0-41.769 65.538-65.5 101.615-152.462 101.615-244.962 0-92.462-36.077-179.462-101.615-244.962-11.538-11.538-11.538-30.231 0-41.769 5.769-5.769 13.308-8.654 20.885-8.654 7.538 0 15.115 2.885 20.885 8.654 76.692 76.654 118.923 178.5 118.923 286.731 0 108.269-42.231 210.115-118.923 286.731-11.577 11.577-30.269 11.5-41.769 0zM133.192 646.115c-11.538-11.538-11.538-30.231 0-41.769 41.846-41.808 64.885-97.346 64.885-156.346s-23.038-114.538-64.885-156.346c-11.538-11.538-11.538-30.231 0-41.769 5.769-5.769 13.308-8.654 20.885-8.654 7.538 0 15.115 2.885 20.885 8.654 53 52.962 82.192 123.308 82.192 198.115s-29.192 145.154-82.192 198.115c-11.577 11.577-30.269 11.5-41.769 0zM707 911.962c-11.577 11.577-30.269 11.5-41.769 0-11.538-11.538-11.538-30.231 0-41.769 112.923-112.885 175.115-262.808 175.115-422.192s-62.192-309.308-175.115-422.192c-11.538-11.538-11.538-30.231 0-41.769 5.769-5.769 13.308-8.654 20.885-8.654 7.538 0 15.115 2.885 20.885 8.654 124.077 124 192.423 288.769 192.423 463.962 0 175.154-68.346 339.923-192.423 463.962z" />
<glyph unicode="&#xe911;" glyph-name="bank" d="M984.368 655.308c0.019 0.433 0.248 0.796 0.248 1.231 0 1.423-0.615 2.644-0.81 4.014-0.288 2.060-0.502 4.060-1.214 6.012-0.663 1.812-1.671 3.341-2.659 4.969-0.969 1.613-1.839 3.207-3.118 4.625-1.397 1.548-3.072 2.675-4.764 3.901-1.118 0.813-1.909 1.925-3.166 2.594l-443.077 234.538c-0.856 0.45-1.793 0.425-2.668 0.784-1.846 0.762-3.668 1.272-5.63 1.651-1.868 0.356-3.651 0.601-5.522 0.594-1.865 0.007-3.644-0.236-5.507-0.591-1.978-0.38-3.817-0.897-5.675-1.668-0.858-0.353-1.776-0.329-2.613-0.769l-443.077-234.538c-1.257-0.668-2.048-1.781-3.166-2.594-1.692-1.226-3.368-2.353-4.764-3.901-1.279-1.418-2.149-3.012-3.118-4.625-0.988-1.627-1.995-3.156-2.659-4.969-0.712-1.952-0.925-3.952-1.214-6.012-0.195-1.37-0.81-2.591-0.81-4.014 0-0.435 0.228-0.798 0.248-1.231 0.079-1.954 0.688-3.82 1.163-5.757 0.483-1.928 0.815-3.853 1.656-5.611 0.185-0.392 0.151-0.822 0.356-1.209 0.375-0.709 1.144-0.978 1.567-1.644 2.094-3.308 4.712-6.046 7.906-8.293 1.065-0.745 1.969-1.505 3.115-2.101 4.103-2.161 8.567-3.692 13.526-3.692h886.154c4.959 0 9.423 1.531 13.526 3.692 1.147 0.596 2.050 1.356 3.115 2.101 3.195 2.248 5.812 4.986 7.906 8.293 0.423 0.666 1.192 0.935 1.567 1.644 0.204 0.387 0.171 0.817 0.356 1.209 0.841 1.757 1.173 3.683 1.656 5.611 0.476 1.937 1.084 3.803 1.163 5.757zM512 857.651l324.132-171.575h-648.264l324.132 171.575zM405.846 193.577c0-16.308 13.231-29.538 29.538-29.538h153.231c16.308 0 29.538 13.231 29.538 29.538 0 12.625-8.007 23.216-19.154 27.44v317.582c11.147 4.224 19.154 14.815 19.154 27.44 0 16.308-13.231 29.538-29.538 29.538h-153.231c-16.308 0-29.538-13.231-29.538-29.538 0-12.625 8.007-23.216 19.154-27.44v-317.582c-11.147-4.224-19.154-14.815-19.154-27.44zM484.077 223.115v313.385h55.846v-313.385h-55.846zM150.462 193.577c0-16.308 13.231-29.538 29.538-29.538h153.231c16.308 0 29.538 13.231 29.538 29.538 0 12.625-8.007 23.216-19.154 27.44v317.582c11.147 4.224 19.154 14.815 19.154 27.44 0 16.308-13.231 29.538-29.538 29.538h-153.231c-16.308 0-29.538-13.231-29.538-29.538 0-12.625 8.007-23.216 19.154-27.44v-317.582c-11.147-4.224-19.154-14.815-19.154-27.44zM228.692 223.115v313.385h55.846v-313.385h-55.846zM661.231 193.577c0-16.308 13.231-29.538 29.538-29.538h153.231c16.308 0 29.538 13.231 29.538 29.538 0 12.625-8.007 23.216-19.154 27.44v317.582c11.147 4.224 19.154 14.815 19.154 27.44 0 16.308-13.231 29.538-29.538 29.538h-153.231c-16.308 0-29.538-13.231-29.538-29.538 0-12.625 8.007-23.216 19.154-27.44v-317.582c-11.147-4.224-19.154-14.815-19.154-27.44zM739.462 223.115v313.385h55.846v-313.385h-55.846zM78.115 99.577c0-16.308 13.231-29.538 29.538-29.538h808.692c16.308 0 29.538 13.231 29.538 29.538s-13.231 29.538-29.538 29.538h-808.692c-16.308 0-29.538-13.231-29.538-29.538zM948.269 34.462h-872.538c-16.308 0-29.538-13.231-29.538-29.538s13.231-29.538 29.538-29.538h872.538c16.308 0 29.538 13.231 29.538 29.538s-13.231 29.538-29.538 29.538z" />
<glyph unicode="&#xe912;" glyph-name="invoice" d="M866.462 920.615h-708.923c-16.308 0-29.538-13.231-29.538-29.538v-724.731c0-3.846 0.786-7.678 2.281-11.288 1.498-3.608 3.651-6.875 6.373-9.596l161.423-161.423c2.721-2.721 5.988-4.875 9.596-6.373 3.613-1.495 7.442-2.281 11.288-2.281h547.5c16.308 0 29.538 13.231 29.538 29.538v886.154c0 16.308-13.231 29.538-29.538 29.538zM289.423 76.231l-60.577 60.577h60.577v-60.577zM836.923 34.462h-488.423v131.885c0 16.308-13.231 29.538-29.538 29.538h-131.885v665.654h649.846v-827.077zM277.635 743.385h212.212c10.885 0 19.692 8.808 19.692 19.692s-8.808 19.692-19.692 19.692h-212.212c-10.885 0-19.692-8.808-19.692-19.692s8.808-19.692 19.692-19.692zM277.635 664.615h106.096c10.885 0 19.692 8.808 19.692 19.692s-8.808 19.692-19.692 19.692h-106.096c-10.885 0-19.692-8.808-19.692-19.692s8.808-19.692 19.692-19.692zM428.308 684.308c0-10.885 8.808-19.692 19.692-19.692h128c10.885 0 19.692 8.808 19.692 19.692s-8.808 19.692-19.692 19.692h-128c-10.885 0-19.692-8.808-19.692-19.692zM275.692 339.692h472.615c10.885 0 19.692 8.808 19.692 19.692v236.308c0 10.885-8.808 19.692-19.692 19.692h-472.615c-10.885 0-19.692-8.808-19.692-19.692v-236.308c0-10.885 8.808-19.692 19.692-19.692zM649.846 525.538v-39.385h-64v39.385h64zM585.846 545.231v30.769h64v-30.769h-64zM585.846 427.077v39.385h64v-39.385h-64zM649.846 407.385v-28.308h-64v28.308h64zM295.385 466.462h270.769v-39.385h-270.769v39.385zM669.538 466.462h59.077v-39.385h-59.077v39.385zM728.615 486.154h-59.077v39.385h59.077v-39.385zM566.154 486.154h-270.769v39.385h270.769v-39.385zM295.385 407.385h270.769v-28.308h-270.769v28.308zM669.538 379.077v28.308h59.077v-28.308h-59.077zM728.615 545.231h-59.077v30.769h59.077v-30.769zM566.154 576v-30.769h-270.769v30.769h270.769zM662.346 316.077c-34.31 0-64.262-18.197-81.293-45.308h-27.726c-10.885 0-19.692-8.808-19.692-19.692s8.808-19.692 19.692-19.692h13.99c-0.462-3.815-1.163-7.562-1.163-11.5 0-53.038 43.154-96.192 96.192-96.192s96.173 43.154 96.173 96.192-43.135 96.192-96.173 96.192zM662.346 143.385c-42.173 0-76.5 34.308-76.5 76.5 0 3.938 0.587 7.721 1.163 11.5h13.788c-0.697-3.74-1.163-7.562-1.163-11.5 0-34.577 28.135-62.692 62.712-62.692s62.692 28.115 62.692 62.692-28.115 62.731-62.692 62.731c-13.596 0-26.103-4.462-36.387-11.846h-20.31c14.017 15.603 34.127 25.615 56.697 25.615 42.173 0 76.481-34.308 76.481-76.5s-34.308-76.5-76.481-76.5zM659.692 231.385c10.885 0 19.692 8.808 19.692 19.692 0 3.245-0.971 6.175-2.358 8.873 16.433-6.055 28.32-21.543 28.32-40.065 0-23.692-19.288-43-43-43s-43.019 19.308-43.019 43c0 4.077 1.262 7.76 2.327 11.5h38.038zM489.846 270.769h-212.212c-10.885 0-19.692-8.808-19.692-19.692s8.808-19.692 19.692-19.692h212.212c10.885 0 19.692 8.808 19.692 19.692s-8.808 19.692-19.692 19.692z" />
<glyph unicode="&#xe913;" glyph-name="wallet" d="M914.885 724.962h-95.341l-10.274 70.692c-0.084 0.575-0.438 1.010-0.57 1.563-1.714 7.26-7.034 12.738-14.010 14.546-2.262 0.608-4.656 0.721-7.065 0.5-0.228-0.019-0.433 0.072-0.663 0.046l-0.012-0.002c-0.010 0-0.017 0.002-0.026 0.002-0.010-0.002-0.017-0.007-0.026-0.010l-56.173-8.036-15.262 47.2c-0.534 1.642-1.538 2.938-2.423 4.327-0.478 0.748-0.738 1.661-1.305 2.329-1.195 1.411-2.721 2.406-4.238 3.418-0.582 0.389-1.022 0.969-1.642 1.293-1.082 0.562-2.325 0.704-3.498 1.060-1.269 0.389-2.466 0.971-3.803 1.096-0.726 0.065-1.483-0.216-2.224-0.231-1.8-0.038-3.606 0.007-5.406-0.562l-0.238-0.075c-0.010-0.002-0.022 0-0.031-0.002s-0.014-0.012-0.024-0.014l-396.123-122.252-118.038-16.887h-67.353c-38.462 0-69.731-33.077-69.731-73.769v-556.385c0-40.654 31.269-73.731 69.731-73.731h805.769c38.462 0 69.731 33.077 69.731 73.731v556.385c0 40.692-31.269 73.769-69.731 73.769zM773.094 770.519l6.623-45.558h-325.048l318.425 45.558zM683.969 820.846l7.192-22.245-147.781-21.144 140.589 43.389zM925.538 94.808c0-7.808-4.962-14.654-10.654-14.654h-805.769c-5.692 0-10.654 6.846-10.654 14.654v556.385c0 8.654 5.615 14.692 10.654 14.692h805.769c5.038 0 10.654-6.038 10.654-14.692v-556.385zM823.038 373c0-22.155-17.633-40.115-39.385-40.115s-39.385 17.96-39.385 40.115c0 22.155 17.633 40.115 39.385 40.115s39.385-17.96 39.385-40.115z" />
<glyph unicode="&#xe914;" glyph-name="delivery" d="M681.769 743.577v11.192c0 16.308-13.231 29.538-29.538 29.538h-583.346c-16.308 0-29.538-13.231-29.538-29.538v-534.769c0-16.308 13.231-29.538 29.538-29.538h121.88c12.952-45.317 54.274-78.769 103.697-78.769s90.745 33.452 103.697 78.769h303.567c12.952-45.317 54.274-78.769 103.697-78.769s90.745 33.452 103.697 78.769h39.149c1.214 0 2.248 0.55 3.423 0.692 1.175-0.142 2.209-0.692 3.423-0.692 16.308 0 29.538 13.231 29.538 29.538v226.058c0 155.825-133.389 284.014-302.885 297.519zM924.44 465.75h-110.94c-28.308 7.75-34.038 58.442-34.038 137.385v54.978c80.505-37.322 137.183-108.822 144.978-192.363zM740.077 672.909v-69.774c0-85.615 5.115-163.519 67.115-176.365 1.308-0.269 2.654-0.404 4-0.404h114.385v-176.827h-16.457c-12.952 45.317-54.274 78.769-103.697 78.769s-90.745-33.452-103.697-78.769h-303.567c-4.382 15.332-11.954 29.175-22.115 40.923h276.187c7.93 0 14.661 4.738 17.784 11.486 6.974 5.406 11.755 13.476 11.755 22.976v359.464c20.202-1.913 39.661-5.904 58.308-11.478zM622.692 329.846h-524.269v395.385h524.269v-395.385zM98.423 290.462h114.457c-10.161-11.748-17.733-25.591-22.115-40.923h-92.341v40.923zM294.462 170.769c-27.154 0-49.231 22.077-49.231 49.231s22.077 49.231 49.231 49.231c27.12 0 49.159-22.029 49.212-49.135 0-0.034-0.019-0.062-0.019-0.096s0.019-0.062 0.019-0.096c-0.053-27.106-22.091-49.135-49.212-49.135zM805.423 170.769c-27.154 0-49.231 22.077-49.231 49.231s22.077 49.231 49.231 49.231 49.231-22.077 49.231-49.231-22.077-49.231-49.231-49.231z" />
<glyph unicode="&#xe915;" glyph-name="menu" d="M955.077 477.538h-886.154c-16.308 0-29.538-13.231-29.538-29.538s13.231-29.538 29.538-29.538h886.154c16.308 0 29.538 13.231 29.538 29.538s-13.231 29.538-29.538 29.538zM68.923 654.769h886.154c16.308 0 29.538 13.231 29.538 29.538s-13.231 29.538-29.538 29.538h-886.154c-16.308 0-29.538-13.231-29.538-29.538s13.231-29.538 29.538-29.538zM955.077 241.231h-886.154c-16.308 0-29.538-13.231-29.538-29.538s13.231-29.538 29.538-29.538h886.154c16.308 0 29.538 13.231 29.538 29.538s-13.231 29.538-29.538 29.538z" />
<glyph unicode="&#xe916;" glyph-name="dot-list" d="M955.077 388.923h-748.308c-16.308 0-29.538-13.231-29.538-29.538s13.231-29.538 29.538-29.538h748.308c16.308 0 29.538 13.231 29.538 29.538s-13.231 29.538-29.538 29.538zM955.077 211.692h-748.308c-16.308 0-29.538-13.231-29.538-29.538s13.231-29.538 29.538-29.538h748.308c16.308 0 29.538 13.231 29.538 29.538s-13.231 29.538-29.538 29.538zM206.769 684.308h748.308c16.308 0 29.538 13.231 29.538 29.538s-13.231 29.538-29.538 29.538h-748.308c-16.308 0-29.538-13.231-29.538-29.538s13.231-29.538 29.538-29.538zM955.077 566.154h-748.308c-16.308 0-29.538-13.231-29.538-29.538s13.231-29.538 29.538-29.538h748.308c16.308 0 29.538 13.231 29.538 29.538s-13.231 29.538-29.538 29.538zM88.615 388.923h-19.692c-16.308 0-29.538-13.231-29.538-29.538s13.231-29.538 29.538-29.538h19.692c16.308 0 29.538 13.231 29.538 29.538s-13.231 29.538-29.538 29.538zM88.615 211.692h-19.692c-16.308 0-29.538-13.231-29.538-29.538s13.231-29.538 29.538-29.538h19.692c16.308 0 29.538 13.231 29.538 29.538s-13.231 29.538-29.538 29.538zM88.615 743.385h-19.692c-16.308 0-29.538-13.231-29.538-29.538s13.231-29.538 29.538-29.538h19.692c16.308 0 29.538 13.231 29.538 29.538s-13.231 29.538-29.538 29.538zM88.615 566.154h-19.692c-16.308 0-29.538-13.231-29.538-29.538s13.231-29.538 29.538-29.538h19.692c16.308 0 29.538 13.231 29.538 29.538s-13.231 29.538-29.538 29.538z" />
<glyph unicode="&#xe917;" glyph-name="price" d="M955.077 477.538h-886.154c-16.308 0-29.538-13.231-29.538-29.538s13.231-29.538 29.538-29.538h886.154c16.308 0 29.538 13.231 29.538 29.538s-13.231 29.538-29.538 29.538zM955.077 300.308h-886.154c-16.308 0-29.538-13.231-29.538-29.538s13.231-29.538 29.538-29.538h886.154c16.308 0 29.538 13.231 29.538 29.538s-13.231 29.538-29.538 29.538zM955.077 103.385h-886.154c-16.308 0-29.538-13.231-29.538-29.538s13.231-29.538 29.538-29.538h886.154c16.308 0 29.538 13.231 29.538 29.538s-13.231 29.538-29.538 29.538zM68.923 772.923h886.154c16.308 0 29.538 13.231 29.538 29.538s-13.231 29.538-29.538 29.538h-886.154c-16.308 0-29.538-13.231-29.538-29.538s13.231-29.538 29.538-29.538zM955.077 654.769h-886.154c-16.308 0-29.538-13.231-29.538-29.538s13.231-29.538 29.538-29.538h886.154c16.308 0 29.538 13.231 29.538 29.538s-13.231 29.538-29.538 29.538z" />
<glyph unicode="&#xe918;" glyph-name="sliders" d="M68.923 654.769h263.103c13.216-51.012 59.231-88.962 114.32-88.962s101.103 37.95 114.32 88.962h394.411c16.308 0 29.538 13.231 29.538 29.538s-13.231 29.538-29.538 29.538h-394.411c-13.216 51.012-59.231 88.962-114.32 88.962s-101.103-37.95-114.32-88.962h-263.103c-16.308 0-29.538-13.231-29.538-29.538s13.231-29.538 29.538-29.538zM446.346 743.731c32.769 0 59.423-26.654 59.423-59.423s-26.654-59.423-59.423-59.423-59.423 26.654-59.423 59.423 26.654 59.423 59.423 59.423zM955.077 477.538h-63.257c-13.216 51.012-59.231 88.962-114.32 88.962s-101.103-37.95-114.32-88.962h-594.257c-16.308 0-29.538-13.231-29.538-29.538s13.231-29.538 29.538-29.538h594.257c13.216-51.012 59.231-88.962 114.32-88.962s101.103 37.95 114.32 88.962h63.257c16.308 0 29.538 13.231 29.538 29.538s-13.231 29.538-29.538 29.538zM777.5 388.577c-32.769 0-59.423 26.654-59.423 59.423s26.654 59.423 59.423 59.423 59.423-26.654 59.423-59.423-26.654-59.423-59.423-59.423zM955.077 241.231h-572.332c-13.214 51.012-59.226 88.962-114.284 88.962-55.089 0-101.103-37.95-114.32-88.962h-85.219c-16.308 0-29.538-13.231-29.538-29.538s13.231-29.538 29.538-29.538h85.219c13.216-51.012 59.231-88.962 114.32-88.962 55.058 0 101.070 37.95 114.284 88.962h572.332c16.308 0 29.538 13.231 29.538 29.538s-13.231 29.538-29.538 29.538zM268.462 152.269c-32.769 0-59.423 26.654-59.423 59.423s26.654 59.423 59.423 59.423c32.731 0 59.385-26.654 59.385-59.423s-26.654-59.423-59.385-59.423z" />
<glyph unicode="&#xe919;" glyph-name="box" d="M265.846 231.385h-196.923c-16.308 0-29.538-13.231-29.538-29.538v-196.923c0-16.308 13.231-29.538 29.538-29.538h196.923c16.308 0 29.538 13.231 29.538 29.538v196.923c0 16.308-13.231 29.538-29.538 29.538zM236.308 34.462h-137.846v137.846h137.846v-137.846zM955.077 231.385h-196.923c-16.308 0-29.538-13.231-29.538-29.538v-196.923c0-16.308 13.231-29.538 29.538-29.538h196.923c16.308 0 29.538 13.231 29.538 29.538v196.923c0 16.308-13.231 29.538-29.538 29.538zM925.538 34.462h-137.846v137.846h137.846v-137.846zM610.462 231.385h-196.923c-16.308 0-29.538-13.231-29.538-29.538v-196.923c0-16.308 13.231-29.538 29.538-29.538h196.923c16.308 0 29.538 13.231 29.538 29.538v196.923c0 16.308-13.231 29.538-29.538 29.538zM580.923 34.462h-137.846v137.846h137.846v-137.846zM265.846 576h-196.923c-16.308 0-29.538-13.231-29.538-29.538v-196.923c0-16.308 13.231-29.538 29.538-29.538h196.923c16.308 0 29.538 13.231 29.538 29.538v196.923c0 16.308-13.231 29.538-29.538 29.538zM236.308 379.077h-137.846v137.846h137.846v-137.846zM955.077 576h-196.923c-16.308 0-29.538-13.231-29.538-29.538v-196.923c0-16.308 13.231-29.538 29.538-29.538h196.923c16.308 0 29.538 13.231 29.538 29.538v196.923c0 16.308-13.231 29.538-29.538 29.538zM925.538 379.077h-137.846v137.846h137.846v-137.846zM610.462 576h-196.923c-16.308 0-29.538-13.231-29.538-29.538v-196.923c0-16.308 13.231-29.538 29.538-29.538h196.923c16.308 0 29.538 13.231 29.538 29.538v196.923c0 16.308-13.231 29.538-29.538 29.538zM580.923 379.077h-137.846v137.846h137.846v-137.846zM265.846 920.615h-196.923c-16.308 0-29.538-13.231-29.538-29.538v-196.923c0-16.308 13.231-29.538 29.538-29.538h196.923c16.308 0 29.538 13.231 29.538 29.538v196.923c0 16.308-13.231 29.538-29.538 29.538zM236.308 723.692h-137.846v137.846h137.846v-137.846zM955.077 920.615h-196.923c-16.308 0-29.538-13.231-29.538-29.538v-196.923c0-16.308 13.231-29.538 29.538-29.538h196.923c16.308 0 29.538 13.231 29.538 29.538v196.923c0 16.308-13.231 29.538-29.538 29.538zM925.538 723.692h-137.846v137.846h137.846v-137.846zM610.462 920.615h-196.923c-16.308 0-29.538-13.231-29.538-29.538v-196.923c0-16.308 13.231-29.538 29.538-29.538h196.923c16.308 0 29.538 13.231 29.538 29.538v196.923c0 16.308-13.231 29.538-29.538 29.538zM580.923 723.692h-137.846v137.846h137.846v-137.846z" />
<glyph unicode="&#xe91a;" glyph-name="list" d="M955 231.385h-886.077c-16.308 0-29.538-13.231-29.538-29.538v-196.923c0-16.308 13.231-29.538 29.538-29.538h886.077c16.308 0 29.538 13.231 29.538 29.538v196.923c0 16.308-13.231 29.538-29.538 29.538zM925.462 34.462h-827v137.846h827v-137.846zM955.077 576h-886.154c-16.308 0-29.538-13.231-29.538-29.538v-196.923c0-16.308 13.231-29.538 29.538-29.538h886.154c16.308 0 29.538 13.231 29.538 29.538v196.923c0 16.308-13.231 29.538-29.538 29.538zM925.538 379.077h-827.077v137.846h827.077v-137.846zM68.923 664.615h886.077c16.308 0 29.538 13.231 29.538 29.538v196.923c0 16.308-13.231 29.538-29.538 29.538h-886.077c-16.308 0-29.538-13.231-29.538-29.538v-196.923c0-16.308 13.231-29.538 29.538-29.538zM98.462 861.538h827v-137.846h-827v137.846z" />
<glyph unicode="&#xe91b;" glyph-name="compare" d="M955.077 920.615h-482.462c-16.308 0-29.538-13.231-29.538-29.538v-160h-374.154c-16.308 0-29.538-13.231-29.538-29.538v-696.615c0-16.308 13.231-29.538 29.538-29.538h482.269c16.308 0 29.538 13.231 29.538 29.538v159.731h374.346c16.308 0 29.538 13.231 29.538 29.538v696.885c0 16.308-13.231 29.538-29.538 29.538zM521.654 34.462h-423.192v299.077h228.279l-94.817-94.846c-7.692-7.692-7.692-20.154 0-27.846 3.846-3.846 8.885-5.769 13.923-5.769s10.077 1.923 13.923 5.769l128.399 128.438c1.827 1.822 3.276 4.005 4.279 6.428 1.99 4.813 1.99 10.226 0 15.038-1.002 2.423-2.452 4.606-4.279 6.428l-128.399 128.438c-7.692 7.692-20.154 7.692-27.846 0s-7.692-20.154 0-27.846l94.817-94.846h-228.279v299.077h373.964c0.067 0 0.123-0.038 0.19-0.038s0.123 0.038 0.19 0.038h48.849v-637.538zM580.731 223.731v477.808c0 16.308-13.231 29.538-29.538 29.538h-49.038v130.462h423.385v-299.231h-228.394l94.856 94.885c7.692 7.692 7.692 20.154 0 27.846s-20.154 7.692-27.846 0l-128.438-128.476c-1.827-1.822-3.276-4.005-4.279-6.428-1.99-4.813-1.99-10.226 0-15.038 1.002-2.423 2.452-4.606 4.279-6.428l128.438-128.476c3.846-3.846 8.885-5.769 13.923-5.769s10.077 1.923 13.923 5.769c7.692 7.692 7.692 20.154 0 27.846l-94.856 94.885h228.394v-299.192h-344.808z" />
<glyph unicode="&#xe91c;" glyph-name="compare3" d="M41.666 594.25c1.498-3.608 3.651-6.875 6.373-9.596l128.5-128.5c5.769-5.769 13.308-8.654 20.885-8.654s15.115 2.885 20.885 8.654c11.538 11.538 11.538 30.231 0 41.769l-78.077 78.077h814.846c16.308 0 29.538 13.231 29.538 29.538s-13.231 29.538-29.538 29.538h-814.846l78.077 78.077c11.538 11.538 11.538 30.231 0 41.769s-30.231 11.538-41.769 0l-128.5-128.5c-2.721-2.721-4.875-5.986-6.373-9.596-2.99-7.221-2.99-15.356 0-22.577zM982.334 301.75c-1.498 3.611-3.651 6.875-6.373 9.596l-128.5 128.5c-11.538 11.538-30.231 11.538-41.769 0s-11.538-30.231 0-41.769l78.077-78.077h-814.846c-16.308 0-29.538-13.231-29.538-29.538s13.231-29.538 29.538-29.538h814.846l-78.077-78.077c-11.538-11.538-11.538-30.231 0-41.769 5.769-5.769 13.308-8.654 20.885-8.654s15.115 2.885 20.885 8.654l128.5 128.5c2.721 2.721 4.875 5.988 6.373 9.596 2.99 7.221 2.99 15.356 0 22.577z" />
<glyph unicode="&#xe91d;" glyph-name="compare2" d="M983.538 324.913c-0.394 2.084-0.459 4.286-1.267 6.19l-0.002 0.012-180.346 425.154c-0.19 0.452-0.584 0.728-0.793 1.166-0.788 1.639-1.887 2.974-2.95 4.421-0.882 1.216-1.486 2.582-2.555 3.659-0.445 0.45-0.954 0.767-1.425 1.183-1.255 1.113-2.728 1.825-4.154 2.712-0.755 0.469-1.437 1.055-2.231 1.454-0.575 0.288-0.945 0.805-1.546 1.060-0.036 0.017-0.077 0.010-0.113 0.024-0.526 0.221-1.084 0.272-1.623 0.464-1.5 0.534-3.099 0.625-4.69 0.911-2.197 0.394-4.325 0.812-6.591 0.692-0.459-0.022-0.868 0.183-1.329 0.139l-189.144-18.077c-12.726 26.423-39.536 44.846-70.779 44.846-36.526 0-67.031-25.111-75.909-58.877l-189.63-18.123c-1.401-0.137-2.541-0.858-3.873-1.178-1.538-0.365-3.13-0.428-4.587-1.031-0.151-0.062-0.313-0.034-0.464-0.099-0.404-0.175-0.647-0.534-1.041-0.726-1.611-0.784-2.918-1.875-4.344-2.918-1.248-0.904-2.596-1.575-3.695-2.675-0.418-0.421-0.755-0.87-1.147-1.313-1.212-1.365-1.981-2.971-2.923-4.538-0.685-1.132-1.695-1.966-2.236-3.214l-180.346-416.538c-0.017-0.041-0.010-0.084-0.026-0.125-0.651-1.519-0.656-3.288-1.046-4.923-0.519-2.207-1.327-4.387-1.332-6.594 0-0.031-0.019-0.058-0.019-0.058 0-115.839 94.154-210.070 209.885-210.070 115.75 0 209.904 94.231 209.904 210.038 0 0-0.019 0.058-0.019 0.089-0.005 2.207-0.813 4.387-1.332 6.594-0.389 1.635-0.394 3.404-1.046 4.923-0.017 0.041-0.010 0.084-0.026 0.125l-164.219 379.25 151.312 14.462c13.572-23.769 38.873-40.019 68.156-40.019 34.603 0 63.726 22.572 74.281 53.644l141.877 13.56-160.988-379.486c-0.808-1.904-0.873-4.106-1.267-6.19-0.332-1.786-1.075-3.55-1.075-5.329l-0.002-0.007c0-115.808 94.154-210 209.904-210 115.731 0 209.885 94.192 209.885 210l-0.002 0.007c0 1.779-0.743 3.543-1.075 5.329zM910.459 349.115h-271.476l135.745 319.976 135.731-319.976zM249.272 620.144l135.377-312.644h-270.743l135.365 312.644zM249.269 127c-73.048 0-134.053 52.296-147.822 121.423h295.663c-13.769-69.127-74.776-121.423-147.841-121.423zM512 702.462c-10.865 0-19.692 8.846-19.692 19.692s8.827 19.692 19.692 19.692 19.692-8.846 19.692-19.692-8.827-19.692-19.692-19.692zM774.731 168.654c-73.065 0-134.072 52.264-147.841 121.385h295.663c-13.769-69.12-74.774-121.385-147.822-121.385z" />
<glyph unicode="&#xe91e;" glyph-name="rub" d="M530.846 320c186.846 0 338.846 139.115 338.846 310.154s-152 310.154-338.846 310.154h-211.923c-27.192 0-49.231-22.038-49.231-49.231v-472.615h-66.154c-27.192 0-49.231-22.038-49.231-49.231s22.038-49.231 49.231-49.231h66.154v-35.923h-66.154c-27.192 0-49.231-22.038-49.231-49.231s22.038-49.231 49.231-49.231h66.154v-180.692c0-27.192 22.038-49.231 49.231-49.231s49.231 22.038 49.231 49.231v180.692h201.538c27.192 0 49.231 22.038 49.231 49.231s-22.038 49.231-49.231 49.231h-201.538v35.923h162.692zM771.231 630.154c0-116.731-107.846-211.692-240.385-211.692h-162.692v423.385h162.692c132.538 0 240.385-94.962 240.385-211.692z" />
<glyph unicode="&#xe91f;" glyph-name="repeat" d="M512 920.615c-16.308 0-29.538-13.231-29.538-29.538s13.231-29.538 29.538-29.538c228.019 0 413.538-185.5 413.538-413.538 0-130.615-62.788-255-167.962-332.731-0.038-0.029-0.050-0.070-0.089-0.099-71.442-52.805-156.332-80.709-245.488-80.709-228.019 0-413.538 185.5-413.538 413.538 0 110.462 43.019 214.308 121.115 292.423l10.288 10.286v-110.825c0-16.308 13.231-29.538 29.538-29.538s29.538 13.231 29.538 29.538v182.115c0 3.846-0.786 7.678-2.281 11.288-2.995 7.219-8.75 12.974-15.969 15.969-3.611 1.495-7.442 2.281-11.288 2.281h-182.115c-16.308 0-29.538-13.231-29.538-29.538s13.231-29.538 29.538-29.538h110.791l-10.272-10.269c-89.269-89.269-138.423-207.962-138.423-334.192 0-260.615 212.019-472.615 472.615-472.615 101.849 0 198.817 31.875 280.464 92.228 0.072 0.053 0.156 0.065 0.228 0.118 120.173 88.846 191.923 231 191.923 380.269 0 260.615-212.019 472.615-472.615 472.615z" />
<glyph unicode="&#xe920;" glyph-name="repeat-b" d="M512 940.308c-27.192 0-49.231-22.038-49.231-49.231s22.038-49.231 49.231-49.231c217.154 0 393.846-176.692 393.846-393.846 0-126.269-58.308-241.769-160-316.923-68.038-50.308-148.923-76.923-233.846-76.923-217.154 0-393.846 176.692-393.846 393.846 0 93.546 32.553 182.022 92.038 252.803v-60.918c0-27.192 22.038-49.231 49.231-49.231s49.231 22.038 49.231 49.231v182.115c0 0.137-0.077 0.25-0.077 0.387-0.053 6.274-1.284 12.524-3.719 18.413-4.99 12.050-14.594 21.651-26.647 26.639-6.010 2.486-12.387 3.786-18.788 3.791h-182.154c-27.192 0-49.231-22.038-49.231-49.231s22.038-49.231 49.231-49.231h65.433c-79.269-89.887-123.010-203.853-123.010-324.769 0-271.462 220.846-492.308 492.308-492.308 106.192 0 207.269 33.269 292.385 96.231 125.192 92.5 199.923 240.577 199.923 396.077 0 271.462-220.846 492.308-492.308 492.308z" />
<glyph unicode="&#xe921;" glyph-name="ok" d="M976.154 754.231c-11.462 11.577-30.154 11.808-41.769 0.385l-560.538-550.748-284.231 279.248c-11.615 11.462-30.385 11.231-41.769-0.385-11.423-11.615-11.269-30.346 0.385-41.769l304.923-299.577c2.017-1.99 4.447-3.185 6.825-4.471 0.957-0.517 1.748-1.389 2.743-1.796 3.565-1.447 7.344-2.195 11.125-2.195 3.779 0 7.555 0.748 11.118 2.192 1.135 0.462 2.034 1.43 3.115 2.038 2.233 1.252 4.55 2.349 6.459 4.231l581.231 571.077c11.654 11.423 11.808 30.154 0.385 41.769z" />
<glyph unicode="&#xe922;" glyph-name="close" d="M553.769 448l422.192 422.192c11.538 11.538 11.538 30.231 0 41.769s-30.231 11.538-41.769 0l-422.192-422.192-422.192 422.192c-11.538 11.538-30.231 11.538-41.769 0s-11.538-30.231 0-41.769l422.192-422.192-422.192-422.192c-11.538-11.538-11.538-30.231 0-41.769 5.769-5.769 13.308-8.654 20.885-8.654s15.115 2.885 20.885 8.654l422.192 422.192 422.192-422.192c5.769-5.769 13.308-8.654 20.885-8.654s15.115 2.885 20.885 8.654c11.538 11.538 11.538 30.231 0 41.769l-422.192 422.192z" />
<glyph unicode="&#xe923;" glyph-name="arrow-right" d="M754.423 468.885l-443.077 443.077c-11.538 11.538-30.231 11.538-41.769 0s-11.538-30.231 0-41.769l422.192-422.192-422.192-422.192c-11.538-11.538-11.538-30.231 0-41.769 5.769-5.769 13.308-8.654 20.885-8.654s15.115 2.885 20.885 8.654l443.077 443.077c11.538 11.538 11.538 30.231 0 41.769z" />
<glyph unicode="&#xe924;" glyph-name="arrow-right-b" d="M768.346 482.808l-443.077 443.077c-19.231 19.231-50.385 19.231-69.615 0s-19.231-50.385 0-69.615l408.269-408.269-408.269-408.269c-19.231-19.231-19.231-50.385 0-69.615 9.615-9.615 22.192-14.423 34.808-14.423s25.192 4.808 34.808 14.423l443.077 443.077c19.231 19.231 19.231 50.385 0 69.615z" />
<glyph unicode="&#xe925;" glyph-name="star" d="M983.154 556.654c-3.462 10.692-12.692 18.5-23.846 20.115l-290.769 42.269-130.038 263.654c-10 20.154-43 20.154-53 0l-130.038-263.654-290.769-42.269c-11.154-1.615-20.385-9.423-23.846-20.115-3.5-10.692-0.577-22.423 7.462-30.269l210.423-205.231-49.692-289.769c-1.885-11.077 2.654-22.308 11.769-28.885 9.038-6.654 21.077-7.462 31.115-2.269l260.077 136.808 260.077-136.808c4.346-2.269 9.077-3.385 13.769-3.385 0.269-0.038 0.577-0.038 0.769 0 16.346 0 29.538 13.231 29.538 29.538 0 4.077-0.808 8-2.308 11.538l-48.577 283.231 210.423 205.231c8.038 7.846 10.962 19.577 7.462 30.269zM712.923 352.615c-6.962-6.808-10.154-16.577-8.5-26.154l42.192-246.077-220.846 116.192c-4.308 2.269-9.038 3.385-13.769 3.385s-9.462-1.115-13.769-3.385l-220.846-116.192 42.192 246.077c1.654 9.577-1.538 19.346-8.5 26.154l-178.692 174.308 246.923 35.885c9.654 1.385 17.962 7.462 22.269 16.154l110.423 223.885 110.423-223.885c4.308-8.692 12.615-14.769 22.269-16.154l246.923-35.885-178.692-174.308z" />
<glyph unicode="&#xe926;" glyph-name="star-b" d="M785.846-22.846c-7.846 0-15.731 1.885-22.923 5.654l-250.923 132-250.923-132c-16.5-8.692-36.654-7.308-51.846 3.731-15.154 11.038-22.769 29.692-19.615 48.154l47.962 279.577-203.038 198.038c-13.385 13.077-18.231 32.615-12.423 50.462 5.769 17.808 21.192 30.808 39.731 33.5l280.538 40.769 125.462 254.346c8.308 16.808 25.423 27.462 44.154 27.462s35.846-10.654 44.154-27.462l125.462-254.346 280.538-40.769c18.538-2.692 33.962-15.692 39.731-33.5 5.808-17.846 0.962-37.385-12.423-50.462l-203.038-198.038 47.962-279.577c3.154-18.462-4.462-37.115-19.615-48.154-8.577-6.231-18.731-9.385-28.923-9.385zM512 219.654c7.885 0 15.731-1.885 22.923-5.654l185.538-97.615-35.462 206.769c-2.731 15.962 2.577 32.231 14.154 43.538l150.154 146.462-207.462 30.154c-16.038 2.346-29.923 12.423-37.077 26.962l-92.769 188.077-92.769-188.077c-7.154-14.538-21.038-24.615-37.077-26.962l-207.462-30.154 150.154-146.462c11.577-11.308 16.885-27.577 14.154-43.538l-35.462-206.769 185.538 97.615c7.192 3.769 15.038 5.654 22.923 5.654z" />
<glyph unicode="&#xe927;" glyph-name="star-s" d="M1001.885 562.769c-5.769 17.808-21.192 30.808-39.731 33.5l-280.538 40.769-125.462 254.346c-8.308 16.808-25.423 27.462-44.154 27.462s-35.846-10.654-44.154-27.462l-125.462-254.346-280.538-40.769c-18.538-2.692-33.962-15.692-39.731-33.5-5.808-17.846-0.962-37.385 12.423-50.462l203.038-198.038-47.962-279.577c-3.154-18.462 4.462-37.115 19.615-48.154 15.192-11.038 35.346-12.423 51.846-3.731l250.923 132 250.923-132c7.192-3.769 15.077-5.654 22.923-5.654 10.192 0 20.346 3.154 28.923 9.385 15.154 11.038 22.769 29.692 19.615 48.154l-47.962 279.577 203.038 198.038c13.385 13.077 18.231 32.615 12.423 50.462z" />
<glyph unicode="&#xe928;" glyph-name="heart-b" d="M512.154 22.462c-14.346 0-27.769 6.231-36.962 16.577l-327.731 327.654c-109.308 109.346-127.769 153.577-127.769 231.077 0 152.077 123.692 275.769 275.769 275.769 86.692 0 165.462-39.654 216.538-104.538 51.077 64.885 129.846 104.538 216.538 104.538 152.077 0 275.769-123.692 275.769-275.769 0-77.5-18.462-121.731-127.769-231.077l-326.462-326.385c-9.192-11.115-23-17.846-37.923-17.846zM295.462 775.077c-97.769 0-177.308-79.538-177.308-177.308 0-41.615 0-62.5 98.923-161.462l294.923-294.846 294.923 294.846c98.923 98.962 98.923 119.846 98.923 161.462 0 97.769-79.538 177.308-177.308 177.308-78.115 0-146.192-50.038-169.385-124.538-6.538-21.115-26-34.615-47-34.615-0.077 0-0.231 0-0.308 0-21 0-40.462 13.5-47 34.615-23.192 74.5-91.269 124.538-169.385 124.538z" />
<glyph unicode="&#xe929;" glyph-name="print" d="M738.462 418.462c0-16.314-13.225-29.538-29.538-29.538s-29.538 13.225-29.538 29.538c0 16.314 13.225 29.538 29.538 29.538s29.538-13.225 29.538-29.538zM817.231 418.462c0-16.314-13.225-29.538-29.538-29.538s-29.538 13.225-29.538 29.538c0 16.314 13.225 29.538 29.538 29.538s29.538-13.225 29.538-29.538zM836.923 546.462h-19.692v128c0 3.846-0.786 7.678-2.281 11.288-1.498 3.611-3.651 6.875-6.373 9.596l-157.538 157.538c-2.721 2.721-5.986 4.875-9.596 6.373-3.611 1.495-7.442 2.281-11.288 2.281h-393.846c-16.308 0-29.538-13.231-29.538-29.538v-285.538h-19.692c-81.442 0-147.692-66.269-147.692-147.692v-236.308c0-16.308 13.231-29.538 29.538-29.538h137.846v-68.923c0-16.308 13.231-29.538 29.538-29.538h551.385c16.308 0 29.538 13.231 29.538 29.538v68.923h137.846c16.308 0 29.538 13.231 29.538 29.538v236.308c0 81.423-66.25 147.692-147.692 147.692zM649.846 770.538l76.385-76.385h-76.385v76.385zM265.846 802.462h344.615v-128c0-10.885 8.808-19.692 19.692-19.692h128v-108.308h-492.308v256zM758.154 93.538h-492.308v157.538h492.308v-157.538zM817.231 251.077c16.308 0 29.538 13.231 29.538 29.538s-13.231 29.538-29.538 29.538h-610.462c-16.308 0-29.538-13.231-29.538-29.538s13.231-29.538 29.538-29.538v-59.077h-108.308v206.769c0 48.846 39.75 88.615 88.615 88.615h649.846c48.865 0 88.615-39.769 88.615-88.615v-206.769h-108.308v59.077z" />
<glyph unicode="&#xe92a;" glyph-name="share" d="M822.154 300.308c-52.82 0-99.37-25.728-129.062-64.892l-335.817 167.909c4.123 14.288 7.034 29.079 7.034 44.675 0 15.603-2.913 30.399-7.038 44.692l335.81 167.906c29.69-39.171 76.248-64.906 129.075-64.906 89.577 0 162.462 72.885 162.462 162.462s-72.885 162.462-162.462 162.462-162.462-72.885-162.462-162.462c0-15.596 2.911-30.387 7.034-44.675l-335.817-167.909c-29.692 39.163-76.243 64.892-129.062 64.892-89.577 0-162.462-72.885-162.462-162.462s72.885-162.462 162.462-162.462c52.827 0 99.385 25.736 129.075 64.906l335.81-167.906c-4.125-14.293-7.038-29.089-7.038-44.692 0-89.577 72.885-162.462 162.462-162.462s162.462 72.885 162.462 162.462-72.885 162.462-162.462 162.462zM822.154 861.538c57 0 103.385-46.385 103.385-103.385s-46.385-103.385-103.385-103.385-103.385 46.385-103.385 103.385 46.385 103.385 103.385 103.385zM201.846 344.615c-57 0-103.385 46.385-103.385 103.385s46.385 103.385 103.385 103.385 103.385-46.385 103.385-103.385-46.385-103.385-103.385-103.385zM822.154 34.462c-57 0-103.385 46.385-103.385 103.385s46.385 103.385 103.385 103.385 103.385-46.385 103.385-103.385-46.385-103.385-103.385-103.385z" />
<glyph unicode="&#xe92b;" glyph-name="clock" d="M512 920.615c-260.615 0-472.615-212-472.615-472.615s212-472.615 472.615-472.615c101.923 0 198.962 31.923 280.654 92.346 120.192 88.846 191.962 231 191.962 380.269 0 260.615-212 472.615-472.615 472.615zM757.577 115.269c-0.038 0-0.038 0-0.038-0.038-71.423-52.846-156.346-80.769-245.538-80.769-228.038 0-413.538 185.5-413.538 413.538s185.5 413.538 413.538 413.538 413.538-185.5 413.538-413.538c0-130.615-62.808-255-167.962-332.731zM738.462 467.692h-206.769v246.154c0 10.885-8.808 19.692-19.692 19.692s-19.692-8.808-19.692-19.692v-265.846c0-10.885 8.808-19.692 19.692-19.692h226.462c10.885 0 19.692 8.808 19.692 19.692s-8.808 19.692-19.692 19.692z" />
<glyph unicode="&#xe92c;" glyph-name="eye" d="M980.423 466.923c-102.192 170.769-246.654 246.923-468.423 246.923s-366.231-76.154-468.423-246.923c-3.555-5.937-4.322-12.562-3.486-18.923-0.837-6.361-0.070-12.986 3.486-18.923 102.192-170.769 246.654-246.923 468.423-246.923s366.231 76.154 468.423 246.923c3.555 5.937 4.322 12.562 3.486 18.923 0.837 6.361 0.070 12.986-3.486 18.923zM512 270.769c-97.731 0-177.231 79.5-177.231 177.231s79.5 177.231 177.231 177.231 177.231-79.5 177.231-177.231-79.5-177.231-177.231-177.231zM101.329 448c51.385 82.534 126.123 163.986 276.469 194.274-61.611-42.692-102.106-113.803-102.106-194.274s40.495-151.582 102.106-194.274c-150.346 30.288-225.084 111.74-276.469 194.274zM646.202 253.726c61.611 42.692 102.106 113.803 102.106 194.274s-40.495 151.582-102.106 194.274c150.346-30.288 225.084-111.74 276.469-194.274-51.385-82.534-126.123-163.986-276.469-194.274zM595.192 482.231l-4.423-0.538c-29.462 0-53.962 23.192-55.731 52.808-0.5 7.885-4.115 15.269-10.077 20.462-6 5.192-13.808 7.423-21.692 7.192-59.538-4.577-106.154-54.731-106.154-114.154 0-63.346 51.538-114.885 114.885-114.885s114.885 51.538 114.885 114.885c0 2.385-0.231 4.731-0.577 6.885-1.192 16.077-16.269 28.308-31.115 27.346z" />
<glyph unicode="&#xe92d;" glyph-name="support" d="M856.050 562.56c-5.969 184.841-157.784 333.44-344.050 333.44s-338.082-148.599-344.050-333.44c-72.988-16.827-128.565-96.923-128.565-193.329 0-97.887 57.363-178.678 132.012-193.767 19.954-70.204 118.137-123.466 243.784-130.377 6.012-25.767 29.063-45.087 56.627-45.087h80.385c32.115 0 58.269 26.154 58.269 58.269v31.154c0 32.115-26.154 58.269-58.269 58.269h-80.385c-26.774 0-49.171-18.276-55.957-42.933-95.353 5.776-164.678 40.315-183.7 77.099 20.101 11.349 33.695 31.695 33.695 55.103v264.538c0 25.404-15.998 47.212-38.986 57.776 4.233 153.791 130.341 277.647 285.139 277.647s280.906-123.856 285.139-277.647c-22.988-10.565-38.986-32.373-38.986-57.776v-264.538c0-35.654 31.231-64.654 69.577-64.654 86.5 0 156.885 88.346 156.885 196.923 0 96.406-55.577 176.502-128.565 193.329zM551.385 89.423v-30.346l-78.769-0.808-0.365 13.764c0.041 0.632 0.365 1.168 0.365 1.812 0 0.839-0.411 1.543-0.478 2.363l-0.329 12.406 79.577 0.808zM98.462 369.231c0 74.731 44.808 137.846 97.808 137.846 6.423 0 10.5-3.654 10.5-5.577v-264.538c0-1.923-4.077-5.577-10.5-5.577-53 0-97.808 63.115-97.808 137.846zM827.731 231.385c-6.423 0-10.5 3.654-10.5 5.577v264.538c0 1.923 4.077 5.577 10.5 5.577 53 0 97.808-63.115 97.808-137.846s-44.808-137.846-97.808-137.846z" />
<glyph unicode="&#xe92e;" glyph-name="comment" d="M777.846 900.923h-531.692c-114 0-206.769-92.769-206.769-206.769v-295.385c0-103.885 77.293-189.293 177.231-203.781v-170.373c0-3.846 0.786-7.678 2.281-11.288 2.993-7.216 8.743-12.969 15.957-15.966 3.611-1.495 7.442-2.284 11.3-2.284s7.69 0.788 11.3 2.284c3.606 1.5 6.865 3.651 9.584 6.37l188.269 188.269h322.538c114 0 206.769 92.769 206.769 206.769v295.385c0 114-92.769 206.769-206.769 206.769zM777.846 251.077h-334.769c-3.846 0-7.678-0.786-11.288-2.281-3.608-1.498-6.875-3.651-9.596-6.373l-146.5-146.5v125.615c0 16.308-13.231 29.538-29.538 29.538-81.423 0-147.692 66.269-147.692 147.692v295.385c0 81.423 66.269 147.692 147.692 147.692h531.692c81.423 0 147.692-66.269 147.692-147.692v-295.385c0-81.423-66.269-147.692-147.692-147.692z" />
<glyph unicode="&#xe92f;" glyph-name="music" d="M953.577 867.615c-7.192 5.615-16.577 7.577-25.346 5.385l-576.538-144.115c-13.154-3.269-22.385-15.115-22.385-28.654v-466.745c-28.457 17.204-64.815 27.861-105.577 27.861-92.346 0-164.654-52.538-164.654-119.615s72.308-119.615 164.654-119.615 164.654 52.538 164.654 119.615v423.981l517.462 129.349v-317.459c-28.457 17.204-64.815 27.861-105.577 27.861-92.346 0-164.654-52.538-164.654-119.615s72.308-119.615 164.654-119.615 164.654 52.538 164.654 119.615v558.5c0 9.077-4.192 17.692-11.346 23.269zM223.731 81.192c-62.231 0-105.577 31.923-105.577 60.538s43.346 60.538 105.577 60.538 105.577-31.923 105.577-60.538-43.346-60.538-105.577-60.538zM800.269 225.308c-62.231 0-105.577 31.923-105.577 60.538s43.346 60.538 105.577 60.538 105.577-31.923 105.577-60.538-43.346-60.538-105.577-60.538zM905.846 772.308v-16.346l-517.462-129.346v50.538l517.462 129.346v-34.192z" />
<glyph unicode="&#xe930;" glyph-name="logout" d="M982.334 459.288c-1.498 3.611-3.651 6.875-6.373 9.596l-221.538 221.538c-11.538 11.538-30.231 11.538-41.769 0s-11.538-30.231 0-41.769l171.115-171.115h-549c-16.308 0-29.538-13.231-29.538-29.538s13.231-29.538 29.538-29.538h549l-171.115-171.115c-11.538-11.538-11.538-30.231 0-41.769 5.769-5.769 13.308-8.654 20.885-8.654s15.115 2.885 20.885 8.654l221.538 221.538c2.721 2.721 4.875 5.988 6.373 9.596 2.99 7.221 2.99 15.356 0 22.577zM589.115 34.462h-342.962c-81.423 0-147.692 66.269-147.692 147.692v531.692c0 81.423 66.269 147.692 147.692 147.692h342.962c16.308 0 29.538 13.231 29.538 29.538s-13.231 29.538-29.538 29.538h-342.962c-114 0-206.769-92.769-206.769-206.769v-531.692c0-114 92.769-206.769 206.769-206.769h342.962c16.308 0 29.538 13.231 29.538 29.538s-13.231 29.538-29.538 29.538z" />
<glyph unicode="&#xe931;" glyph-name="arrow-left" d="M269.577 427.115l443.077-443.077c11.538-11.538 30.231-11.538 41.769 0s11.538 30.231 0 41.769l-422.192 422.192 422.192 422.192c11.538 11.538 11.538 30.231 0 41.769-5.769 5.769-13.308 8.654-20.885 8.654s-15.115-2.885-20.885-8.654l-443.077-443.077c-11.538-11.538-11.538-30.231 0-41.769z" />
<glyph unicode="&#xe932;" glyph-name="arrow-up" d="M491.115 690.423l-443.077-443.077c-11.538-11.538-11.538-30.231 0-41.769s30.231-11.538 41.769 0l422.192 422.192 422.192-422.192c11.538-11.538 30.231-11.538 41.769 0 5.769 5.769 8.654 13.308 8.654 20.885s-2.885 15.115-8.654 20.885l-443.077 443.077c-11.538 11.538-30.231 11.538-41.769 0z" />
<glyph unicode="&#xe933;" glyph-name="arrow-down" d="M532.885 205.577l443.077 443.077c11.538 11.538 11.538 30.231 0 41.769s-30.231 11.538-41.769 0l-422.192-422.192-422.192 422.192c-11.538 11.538-30.231 11.538-41.769 0-5.769-5.769-8.654-13.308-8.654-20.885s2.885-15.115 8.654-20.885l443.077-443.077c11.538-11.538 30.231-11.538 41.769 0z" />
<glyph unicode="&#xe934;" glyph-name="arrow-left-b" d="M255.654 413.192l443.077-443.077c19.231-19.231 50.385-19.231 69.615 0s19.231 50.385 0 69.615l-408.269 408.269 408.269 408.269c19.231 19.231 19.231 50.385 0 69.615-9.615 9.615-22.192 14.423-34.808 14.423s-25.192-4.808-34.808-14.423l-443.077-443.077c-19.231-19.231-19.231-50.385 0-69.615z" />
<glyph unicode="&#xe935;" glyph-name="arrow-up-b" d="M477.192 704.346l-443.077-443.077c-19.231-19.231-19.231-50.385 0-69.615s50.385-19.231 69.615 0l408.269 408.269 408.269-408.269c19.231-19.231 50.385-19.231 69.615 0 9.615 9.615 14.423 22.192 14.423 34.808s-4.808 25.192-14.423 34.808l-443.077 443.077c-19.231 19.231-50.385 19.231-69.615 0z" />
<glyph unicode="&#xe936;" glyph-name="arrow-down-b" d="M546.808 191.654l443.077 443.077c19.231 19.231 19.231 50.385 0 69.615s-50.385 19.231-69.615 0l-408.269-408.269-408.269 408.269c-19.231 19.231-50.385 19.231-69.615 0-9.615-9.615-14.423-22.192-14.423-34.808s4.808-25.192 14.423-34.808l443.077-443.077c19.231-19.231 50.385-19.231 69.615 0z" />
<glyph unicode="&#xe937;" glyph-name="microphone" d="M856.615 438.154c0 16.308-13.231 29.538-29.538 29.538s-29.538-13.231-29.538-29.538c0-157.462-128.077-285.538-285.538-285.538s-285.538 128.077-285.538 285.538c0 16.308-13.231 29.538-29.538 29.538s-29.538-13.231-29.538-29.538c0-180.067 138.844-328.062 315.077-343.12v-60.572h-147.692c-16.308 0-29.538-13.231-29.538-29.538s13.231-29.538 29.538-29.538h354.462c16.308 0 29.538 13.231 29.538 29.538s-13.231 29.538-29.538 29.538h-147.692v60.572c176.233 15.058 315.077 163.053 315.077 343.12zM512 211.692c114 0 206.769 92.538 206.769 206.269v296.385c0 113.731-92.769 206.269-206.769 206.269s-206.769-92.538-206.769-206.269v-296.385c0-113.731 92.769-206.269 206.769-206.269zM364.308 714.346c0 81.154 66.269 147.192 147.692 147.192s147.692-66.038 147.692-147.192v-296.385c0-81.154-66.269-147.192-147.692-147.192s-147.692 66.038-147.692 147.192v296.385z" />
<glyph unicode="&#xe938;" glyph-name="service" d="M915.692 903.385h-807.385c-38 0-68.923-30.923-68.923-68.923v-571.077c0-38 30.923-68.923 68.923-68.923h269.363l-27.856-142.769h-15.046c-16.308 0-29.538-13.231-29.538-29.538s13.231-29.538 29.538-29.538h354.462c16.308 0 29.538 13.231 29.538 29.538s-13.231 29.538-29.538 29.538h-15.046l-27.856 142.769h269.363c38 0 68.923 30.923 68.923 68.923v571.077c0 38-30.923 68.923-68.923 68.923zM613.978 51.692h-203.957l27.856 142.769h148.245l27.856-142.769zM925.538 263.385c0-5.346-4.5-9.846-9.846-9.846h-807.385c-5.346 0-9.846 4.5-9.846 9.846v571.077c0 5.346 4.5 9.846 9.846 9.846h807.385c5.346 0 9.846-4.5 9.846-9.846v-571.077z" />
<glyph unicode="&#xe939;" glyph-name="server" d="M984.615 851.692c0 38-30.923 68.923-68.923 68.923h-807.385c-38 0-68.923-30.923-68.923-68.923v-216.615c0-14.659 4.678-28.202 12.512-39.385-7.834-11.183-12.512-24.726-12.512-39.385v-216.615c0-14.659 4.678-28.202 12.512-39.385-7.834-11.183-12.512-24.726-12.512-39.385v-216.615c0-38 30.923-68.923 68.923-68.923h807.385c38 0 68.923 30.923 68.923 68.923v216.615c0 14.659-4.678 28.202-12.512 39.385 7.834 11.183 12.512 24.726 12.512 39.385v216.615c0 14.659-4.678 28.202-12.512 39.385 7.834 11.183 12.512 24.726 12.512 39.385v216.615zM98.462 851.692c0 5.346 4.5 9.846 9.846 9.846h807.385c5.346 0 9.846-4.5 9.846-9.846v-216.615c0-5.346-4.5-9.846-9.846-9.846h-807.385c-5.346 0-9.846 4.5-9.846 9.846v216.615zM925.538 556.308v-216.615c0-5.346-4.5-9.846-9.846-9.846h-807.385c-5.346 0-9.846 4.5-9.846 9.846v216.615c0 5.346 4.5 9.846 9.846 9.846h807.385c5.346 0 9.846-4.5 9.846-9.846zM925.538 44.308c0-5.346-4.5-9.846-9.846-9.846h-807.385c-5.346 0-9.846 4.5-9.846 9.846v216.615c0 5.346 4.5 9.846 9.846 9.846h807.385c5.346 0 9.846-4.5 9.846-9.846v-216.615zM236.308 681.846c33.923 0 61.538 27.615 61.538 61.538s-27.615 61.538-61.538 61.538-61.538-27.615-61.538-61.538 27.615-61.538 61.538-61.538zM236.308 765.538c12.231 0 22.154-9.923 22.154-22.154s-9.923-22.154-22.154-22.154-22.154 9.923-22.154 22.154 9.923 22.154 22.154 22.154zM393.846 681.846c33.923 0 61.538 27.615 61.538 61.538s-27.615 61.538-61.538 61.538-61.538-27.615-61.538-61.538 27.615-61.538 61.538-61.538zM393.846 765.538c12.231 0 22.154-9.923 22.154-22.154s-9.923-22.154-22.154-22.154-22.154 9.923-22.154 22.154 9.923 22.154 22.154 22.154zM236.308 386.462c33.923 0 61.538 27.615 61.538 61.538s-27.615 61.538-61.538 61.538-61.538-27.615-61.538-61.538 27.615-61.538 61.538-61.538zM236.308 470.154c12.231 0 22.154-9.923 22.154-22.154s-9.923-22.154-22.154-22.154-22.154 9.923-22.154 22.154 9.923 22.154 22.154 22.154zM393.846 386.462c33.923 0 61.538 27.615 61.538 61.538s-27.615 61.538-61.538 61.538-61.538-27.615-61.538-61.538 27.615-61.538 61.538-61.538zM393.846 470.154c12.231 0 22.154-9.923 22.154-22.154s-9.923-22.154-22.154-22.154-22.154 9.923-22.154 22.154 9.923 22.154 22.154 22.154zM236.308 214.154c-33.923 0-61.538-27.615-61.538-61.538s27.615-61.538 61.538-61.538 61.538 27.615 61.538 61.538-27.615 61.538-61.538 61.538zM236.308 130.462c-12.231 0-22.154 9.923-22.154 22.154s9.923 22.154 22.154 22.154 22.154-9.923 22.154-22.154-9.923-22.154-22.154-22.154zM393.846 214.154c-33.923 0-61.538-27.615-61.538-61.538s27.615-61.538 61.538-61.538 61.538 27.615 61.538 61.538-27.615 61.538-61.538 61.538zM393.846 130.462c-12.231 0-22.154 9.923-22.154 22.154s9.923 22.154 22.154 22.154 22.154-9.923 22.154-22.154-9.923-22.154-22.154-22.154z" />
<glyph unicode="&#xe93a;" glyph-name="ok-b" d="M990.192 768.038c-19.115 19.423-50.231 19.654-69.615 0.615l-546.731-537.18-270.423 265.68c-19.346 19.038-50.577 18.769-69.615-0.615s-18.769-50.577 0.615-69.615l304.923-299.577c3.284-3.231 7.24-5.142 11.084-7.262 1.7-0.937 3.115-2.481 4.892-3.202 5.933-2.406 12.219-3.651 18.524-3.651 6.303 0 12.589 1.24 18.519 3.647 1.916 0.776 3.442 2.423 5.267 3.45 3.702 2.084 7.541 3.897 10.714 7.019l581.231 571.077c19.385 19.038 19.654 50.231 0.615 69.615z" />
<glyph unicode="&#xe93b;" glyph-name="close-b" d="M581.615 448l408.269 408.269c19.231 19.231 19.231 50.385 0 69.615s-50.385 19.231-69.615 0l-408.269-408.269-408.269 408.269c-19.231 19.231-50.385 19.231-69.615 0s-19.231-50.385 0-69.615l408.269-408.269-408.269-408.269c-19.231-19.231-19.231-50.385 0-69.615 9.615-9.615 22.192-14.423 34.808-14.423s25.192 4.808 34.808 14.423l408.269 408.269 408.269-408.269c9.615-9.615 22.192-14.423 34.808-14.423s25.192 4.808 34.808 14.423c19.231 19.231 19.231 50.385 0 69.615l-408.269 408.269z" />
<glyph unicode="&#xe93c;" glyph-name="dots" d="M561.231 448c0-27.189-22.041-49.231-49.231-49.231s-49.231 22.041-49.231 49.231c0 27.189 22.041 49.231 49.231 49.231s49.231-22.041 49.231-49.231zM561.231 743.385c0-27.189-22.041-49.231-49.231-49.231s-49.231 22.041-49.231 49.231c0 27.189 22.041 49.231 49.231 49.231s49.231-22.041 49.231-49.231zM561.231 152.615c0-27.189-22.041-49.231-49.231-49.231s-49.231 22.041-49.231 49.231c0 27.189 22.041 49.231 49.231 49.231s49.231-22.041 49.231-49.231z" />
<glyph unicode="&#xe93d;" glyph-name="heart" d="M512.154 42.154c-8.808 0-17.038 3.885-22.577 10.346l-328.192 328.115c-110.962 111-122 149.577-122 217.154 0 141.192 114.885 256.077 256.077 256.077 89.846 0 170.5-45.885 216.538-118.962 46.038 73.077 126.692 118.962 216.538 118.962 141.192 0 256.077-114.885 256.077-256.077 0-67.577-11.038-106.154-122-217.154l-327.192-327.115c-5.5-7.038-14.038-11.346-23.269-11.346zM295.462 794.769c-108.615 0-197-88.385-197-197 0-45.538 0-70.654 104.692-175.385l308.846-308.769 308.846 308.769c104.692 104.731 104.692 129.846 104.692 175.385 0 108.615-88.385 197-197 197-86.808 0-162.423-55.615-188.192-138.385-3.923-12.654-15.577-20.769-28.192-20.769-0.077 0-0.231 0-0.308 0-12.615 0-24.269 8.115-28.192 20.769-25.769 82.769-101.385 138.385-188.192 138.385z" />
<glyph unicode="&#xe93e;" glyph-name="heart-s" d="M728.538 873.538c-86.692 0-165.462-39.654-216.538-104.538-51.077 64.885-129.846 104.538-216.538 104.538-152.077 0-275.769-123.692-275.769-275.769 0-77.5 18.462-121.731 127.769-231.077l327.731-327.654c9.192-10.346 22.615-16.577 36.962-16.577 14.923 0 28.731 6.731 37.923 17.846l326.462 326.385c109.308 109.346 127.769 153.577 127.769 231.077 0 152.077-123.692 275.769-275.769 275.769z" />
<glyph unicode="&#xe93f;" glyph-name="comment-s" d="M777.846 900.923h-531.692c-114 0-206.769-92.769-206.769-206.769v-295.385c0-104 77.154-190.308 177.231-204.654v-169.5c0-11.962 7.192-22.731 18.231-27.308 3.654-1.5 7.5-2.231 11.308-2.231 7.692 0 15.231 3 20.885 8.654l188.269 188.269h322.538c114 0 206.769 92.769 206.769 206.769v295.385c0 114-92.769 206.769-206.769 206.769z" />
<glyph unicode="&#xe940;" glyph-name="question" d="M512-24.615c-260.615 0-472.615 212-472.615 472.615s212 472.615 472.615 472.615 472.615-212 472.615-472.615c0-149.269-71.769-291.423-191.962-380.269-81.692-60.423-178.731-92.346-280.654-92.346zM512 861.538c-228.038 0-413.538-185.5-413.538-413.538s185.5-413.538 413.538-413.538c89.192 0 174.115 27.923 245.538 80.769 0 0.038 0 0.038 0.038 0.038 105.154 77.731 167.962 202.115 167.962 332.731 0 228.038-185.5 413.538-413.538 413.538zM506.846 296.615c-16.308 0-29.538 13.231-29.538 29.538 0 82.654 51.885 127.808 93.577 164.077 35 30.423 56.462 50.577 56.462 79.731 0 66.462-54.038 120.5-120.5 120.5-49.962 0-94-30.038-112.231-76.577-5.923-15.192-23.038-22.731-38.269-16.731-15.192 5.923-22.692 23.077-16.731 38.269 27.115 69.308 92.769 114.115 167.231 114.115 99 0 179.577-80.538 179.577-179.577 0-57.538-40.769-93.038-76.769-124.308-37.654-32.769-73.269-63.731-73.269-119.5 0-16.308-13.231-29.538-29.538-29.538zM545.987 195.692c0-21.752-17.633-39.385-39.385-39.385s-39.385 17.633-39.385 39.385c0 21.752 17.633 39.385 39.385 39.385s39.385-17.633 39.385-39.385z" />
<glyph unicode="&#xe941;" glyph-name="at" d="M512 920.615c-260.615 0-472.615-212.019-472.615-472.615s212-472.615 472.615-472.615c16.308 0 29.538 13.231 29.538 29.538s-13.231 29.538-29.538 29.538c-228.038 0-413.538 185.519-413.538 413.538s185.5 413.538 413.538 413.538 413.538-185.519 413.538-413.538v-74.923c0-51.577-41.962-93.538-93.538-93.538s-93.538 41.962-93.538 93.538v212.769c0 0.401-0.212 0.733-0.228 1.13-0.079 2.123-0.712 4.103-1.245 6.166-0.447 1.704-0.671 3.445-1.399 5.017-0.716 1.558-1.887 2.846-2.885 4.276-1.228 1.757-2.339 3.534-3.911 4.981-0.293 0.272-0.409 0.649-0.716 0.911-47.846 40.827-100.692 66.135-216.077 66.135-124.885 0-226.462-101.596-226.462-226.462s101.577-226.462 226.462-226.462c73.704 0 139.089 35.548 180.466 90.221 23.678-53.654 77.216-91.298 139.534-91.298 84.154 0 152.615 68.462 152.615 152.615v74.923c0 260.596-212 472.615-472.615 472.615zM512 280.615c-92.308 0-167.385 75.096-167.385 167.385s75.077 167.385 167.385 167.385c96.599 0 136.904-19.764 167.385-43.587v-123.798c0-92.288-75.077-167.385-167.385-167.385z" />
<glyph unicode="&#xe942;" glyph-name="mobile24" d="M742.769 920.615h-461.538c-36.654 0-66.462-29.808-66.462-66.462v-812.308c0-36.654 29.808-66.462 66.462-66.462h461.538c36.654 0 66.462 29.808 66.462 66.462v812.308c0 36.654-29.808 66.462-66.462 66.462zM273.846 760.615h476.308v-588.308h-476.308v588.308zM281.231 861.538h461.538c4.077 0 7.385-3.308 7.385-7.385v-54.154h-476.308v54.154c0 4.077 3.308 7.385 7.385 7.385zM742.769 34.462h-461.538c-4.077 0-7.385 3.308-7.385 7.385v91.077h476.308v-91.077c0-4.077-3.308-7.385-7.385-7.385zM484.308 816.615h55.385c5.423 0 9.846 4.423 9.846 9.846s-4.423 9.846-9.846 9.846h-55.385c-5.423 0-9.846-4.423-9.846-9.846s4.423-9.846 9.846-9.846zM544.923 88c0-18.183-14.74-32.923-32.923-32.923s-32.923 14.74-32.923 32.923c0 18.183 14.74 32.923 32.923 32.923s32.923-14.74 32.923-32.923zM499.231 501.731c0 48.038-39.115 87.115-87.154 87.115s-87.154-39.077-87.154-87.115c0-10.885 8.808-19.692 19.692-19.692s19.692 8.808 19.692 19.692c0 26.308 21.423 47.731 47.769 47.731s47.769-21.423 47.769-47.731c0-10.346-4.885-21.769-13.808-33.615l-116-128.038c-5.231-5.769-6.577-14.077-3.423-21.231 3.154-7.115 10.231-11.692 18-11.692h134.923c10.885 0 19.692 8.808 19.692 19.692s-8.808 19.692-19.692 19.692h-90.538l87.269 96.423c15.462 20.269 22.962 39.5 22.962 58.769zM679.385 406.462h-20.269v162.692c0 0.74-0.341 1.368-0.421 2.087-0.147 1.337-0.368 2.591-0.781 3.87-0.399 1.236-0.904 2.349-1.526 3.466-0.587 1.060-1.221 2.026-2.005 2.974-0.894 1.077-1.877 1.978-2.978 2.844-0.546 0.433-0.88 1.034-1.481 1.413-0.447 0.284-0.962 0.3-1.421 0.543-1.175 0.625-2.399 1.034-3.702 1.411-1.291 0.373-2.526 0.675-3.844 0.774-0.534 0.043-0.99 0.31-1.534 0.31-0.74 0-1.368-0.341-2.089-0.421-1.327-0.147-2.575-0.368-3.846-0.776-1.252-0.401-2.377-0.911-3.505-1.543-1.048-0.579-2.005-1.207-2.942-1.981-1.087-0.899-1.993-1.887-2.863-2.995-0.43-0.543-1.029-0.877-1.409-1.476l-114.923-182.385c-0.281-0.447-0.298-0.959-0.541-1.418-0.63-1.185-1.041-2.411-1.418-3.724-0.368-1.284-0.673-2.519-0.772-3.827-0.043-0.531-0.308-0.988-0.308-1.531 0-0.74 0.341-1.368 0.421-2.087 0.147-1.337 0.365-2.591 0.779-3.87 0.399-1.238 0.909-2.353 1.531-3.471 0.584-1.055 1.219-2.019 1.998-2.964 0.897-1.082 1.882-1.981 2.986-2.849 0.546-0.43 0.877-1.034 1.478-1.413 0.337-0.214 0.738-0.123 1.082-0.313 2.837-1.582 5.935-2.726 9.418-2.726h95.231v-40.231c0-10.885 8.808-19.692 19.692-19.692s19.692 8.808 19.692 19.692v40.231h20.269c10.885 0 19.692 8.808 19.692 19.692s-8.808 19.692-19.692 19.692zM560.178 406.462l59.553 94.51v-94.51h-59.553z" />
<glyph unicode="&#xe943;" glyph-name="mobile" d="M742.769 920.615h-461.538c-36.654 0-66.462-29.808-66.462-66.462v-812.308c0-36.654 29.808-66.462 66.462-66.462h461.538c36.654 0 66.462 29.808 66.462 66.462v812.308c0 36.654-29.808 66.462-66.462 66.462zM273.846 760.615h476.308v-588.308h-476.308v588.308zM281.231 861.538h461.538c4.077 0 7.385-3.308 7.385-7.385v-54.154h-476.308v54.154c0 4.077 3.308 7.385 7.385 7.385zM742.769 34.462h-461.538c-4.077 0-7.385 3.308-7.385 7.385v91.077h476.308v-91.077c0-4.077-3.308-7.385-7.385-7.385zM484.308 816.615h55.385c5.423 0 9.846 4.423 9.846 9.846s-4.423 9.846-9.846 9.846h-55.385c-5.423 0-9.846-4.423-9.846-9.846s4.423-9.846 9.846-9.846zM544.923 88c0-18.183-14.74-32.923-32.923-32.923s-32.923 14.74-32.923 32.923c0 18.183 14.74 32.923 32.923 32.923s32.923-14.74 32.923-32.923z" />
<glyph unicode="&#xe944;" glyph-name="at-comment" d="M777.846 900.923h-531.692c-114 0-206.769-92.769-206.769-206.769v-295.385c0-103.885 77.293-189.293 177.231-203.781v-170.373c0-3.846 0.786-7.678 2.281-11.288 2.993-7.216 8.743-12.969 15.957-15.966 3.611-1.495 7.442-2.284 11.3-2.284s7.69 0.788 11.3 2.284c3.606 1.5 6.865 3.651 9.584 6.37l188.269 188.269h322.538c114 0 206.769 92.769 206.769 206.769v295.385c0 114-92.769 206.769-206.769 206.769zM777.846 251.077h-334.769c-3.846 0-7.678-0.786-11.288-2.281-3.608-1.498-6.875-3.651-9.596-6.373l-146.5-146.5v125.615c0 16.308-13.231 29.538-29.538 29.538-81.423 0-147.692 66.269-147.692 147.692v295.385c0 81.423 66.269 147.692 147.692 147.692h531.692c81.423 0 147.692-66.269 147.692-147.692v-295.385c0-81.423-66.269-147.692-147.692-147.692zM512 763.077c-119.423 0-216.615-97.192-216.615-216.615s97.192-216.615 216.615-216.615c10.885 0 19.692 8.808 19.692 19.692s-8.808 19.692-19.692 19.692c-97.731 0-177.231 79.5-177.231 177.231s79.5 177.231 177.231 177.231 177.231-79.5 177.231-177.231v-33.308c0-19.308-15.692-35-35-35s-35 15.692-35 35v94.577c0 0.276-0.144 0.505-0.156 0.779-0.055 1.392-0.469 2.692-0.815 4.046-0.3 1.159-0.457 2.337-0.95 3.399-0.481 1.048-1.264 1.909-1.933 2.87-0.813 1.159-1.546 2.332-2.584 3.288-0.2 0.185-0.276 0.44-0.486 0.618-21.846 18.577-47.269 30.962-100.308 30.962-59.115 0-107.231-48.115-107.231-107.231s48.115-107.231 107.231-107.231c31.356 0 59.346 13.776 78.974 35.312 13.089-21.353 36.44-35.774 63.257-35.774 41 0 74.385 33.385 74.385 74.385v33.308c0 119.423-97.192 216.615-216.615 216.615zM512 478.615c-37.423 0-67.846 30.423-67.846 67.846s30.423 67.846 67.846 67.846c38.423 0 55.226-6.925 67.846-16.135v-51.712c0-37.423-30.423-67.846-67.846-67.846z" />
<glyph unicode="&#xe945;" glyph-name="dialogue" d="M905.846 593.716v100.438c0 114-92.769 206.769-206.769 206.769h-452.923c-114 0-206.769-92.769-206.769-206.769v-295.385c0-103.885 77.293-189.293 177.231-203.781v-170.373c0-3.846 0.786-7.678 2.281-11.288 2.993-7.216 8.743-12.969 15.957-15.966 3.611-1.495 7.442-2.284 11.3-2.284s7.69 0.788 11.3 2.284c3.606 1.5 6.865 3.651 9.584 6.37l161.123 161.123c26.197-24.825 61.339-40.315 100.185-40.315h168.5l120.808-120.808c2.719-2.719 5.978-4.87 9.584-6.37 3.611-1.495 7.442-2.284 11.3-2.284s7.69 0.788 11.3 2.284c7.214 2.998 12.964 8.75 15.957 15.966 1.495 3.611 2.281 7.442 2.281 11.288v102.94c66.425 13.702 116.538 72.639 116.538 143.060v194.231c0 56.142-32.197 104.423-78.769 128.87zM98.462 398.769v295.385c0 81.423 66.269 147.692 147.692 147.692h452.923c81.423 0 147.692-66.269 147.692-147.692v-84.062c-2.779 0.159-5.411 0.832-8.231 0.832h-310.192c-80.538 0-146.077-65.538-146.077-146.077v-194.231c0-20.082 4.091-39.224 11.457-56.659l-118.034-118.034v125.615c0 16.308-13.231 29.538-29.538 29.538-81.423 0-147.692 66.269-147.692 147.692zM838.538 183.615c-16.308 0-29.538-13.231-29.538-29.538v-58.154l-79.038 79.038c-2.721 2.721-5.986 4.875-9.596 6.373-3.611 1.495-7.442 2.281-11.288 2.281h-180.731c-47.962 0-87 39.038-87 87v194.231c0 47.962 39.038 87 87 87h310.192c47.962 0 87-39.038 87-87v-194.231c0-47.962-39.038-87-87-87z" />
<glyph unicode="&#xe946;" glyph-name="email" d="M914.885 802.462h-805.769c-38.462 0-69.731-33.231-69.731-74.077v-560.769c0-40.846 31.269-74.077 69.731-74.077h805.769c38.462 0 69.731 33.231 69.731 74.077v560.769c0 40.846-31.269 74.077-69.731 74.077zM914.885 743.385c2.108 0 4.245-1.274 6.101-3.178l-408.986-295.166-408.986 295.166c1.856 1.904 3.993 3.178 6.101 3.178h805.769zM914.885 152.615h-805.769c-5.038 0-10.654 6.154-10.654 15v503.026l396.269-285.988c0.885-0.642 1.909-0.904 2.841-1.433 0.911-0.517 1.762-0.954 2.716-1.37 3.779-1.651 7.7-2.774 11.673-2.774 0.014 0 0.024 0.010 0.038 0.010s0.024-0.010 0.038-0.010c3.974 0 7.894 1.123 11.673 2.774 0.954 0.416 1.805 0.853 2.716 1.37 0.933 0.529 1.957 0.791 2.841 1.433l396.269 285.988v-503.026c0-8.846-5.615-15-10.654-15z" />
<glyph unicode="&#xe947;" glyph-name="globe" d="M512 920.615c-260.615 0-472.615-212-472.615-472.615s212-472.615 472.615-472.615 472.615 212 472.615 472.615-212 472.615-472.615 472.615zM835.45 191.055c-25.425 23.856-52.825 46.24-85.726 65.014 15.885 49.43 25.786 106.502 27.486 172.238h147.332c-4.24-89.421-36.712-171.452-89.091-237.252zM99.459 428.308h147.332c1.7-65.736 11.601-122.808 27.486-172.238-32.901-18.774-60.3-41.159-85.726-65.014-52.38 65.8-84.851 147.832-89.091 237.252zM188.55 704.945c25.425-23.856 52.825-46.24 85.726-65.014-15.885-49.43-25.786-106.502-27.486-172.238h-147.332c4.24 89.421 36.712 171.452 89.091 237.252zM531.692 586.286c76.541 1.988 134.909 15.346 182.188 35.832 13.776-44.507 22.332-95.743 23.952-154.425h-206.139v118.594zM531.692 625.671v231.75c63.267-38.257 128.805-99.731 168.721-197.697-43.63-19.329-97.577-32.046-168.721-34.053zM492.308 857.421v-231.75c-71.144 2.007-125.091 14.724-168.721 34.053 39.916 97.966 105.454 159.44 168.721 197.697zM492.308 586.286v-118.594h-206.139c1.62 58.683 10.175 109.918 23.952 154.425 47.279-20.486 105.647-33.844 182.188-35.832zM286.168 428.308h206.139v-118.594c-76.541-1.988-134.909-15.346-182.188-35.832-13.776 44.507-22.332 95.743-23.952 154.425zM492.308 270.329v-231.75c-63.267 38.257-128.805 99.731-168.721 197.697 43.63 19.329 97.577 32.046 168.721 34.053zM531.692 38.579v231.75c71.144-2.007 125.091-14.724 168.721-34.053-39.916-97.966-105.454-159.44-168.721-197.697zM531.692 309.714v118.594h206.139c-1.62-58.683-10.175-109.918-23.952-154.425-47.279 20.486-105.647 33.844-182.188 35.832zM777.209 467.692c-1.7 65.736-11.601 122.808-27.486 172.238 32.901 18.774 60.3 41.159 85.726 65.014 52.38-65.8 84.851-147.832 89.091-237.252h-147.332zM809.459 734.591c-22.010-20.647-45.7-40.041-73.661-56.642-31.070 74.966-76.048 130.45-124.341 170.995 76.637-19.026 144.868-59.221 198.002-114.353zM412.543 848.945c-48.293-40.546-93.272-96.029-124.341-170.995-27.962 16.601-51.651 35.995-73.661 56.642 53.135 55.132 121.365 95.327 198.002 114.353zM214.541 161.409c22.010 20.647 45.7 40.041 73.661 56.642 31.070-74.966 76.048-130.45 124.341-170.995-76.637 19.026-144.868 59.221-198.002 114.353zM611.457 47.055c48.293 40.546 93.272 96.029 124.341 170.995 27.962-16.601 51.651-35.995 73.661-56.642-53.135-55.132-121.365-95.327-198.002-114.353z" />
<glyph unicode="&#xe948;" glyph-name="date" d="M915.692 841.846h-78.769v49.231c0 16.308-13.231 29.538-29.538 29.538s-29.538-13.231-29.538-29.538v-49.231h-137.846v49.231c0 16.308-13.231 29.538-29.538 29.538s-29.538-13.231-29.538-29.538v-49.231h-137.846v49.231c0 16.308-13.231 29.538-29.538 29.538s-29.538-13.231-29.538-29.538v-49.231h-137.846v49.231c0 16.308-13.231 29.538-29.538 29.538s-29.538-13.231-29.538-29.538v-49.231h-78.769c-38 0-68.923-30.923-68.923-68.923v-728.615c0-38 30.923-68.923 68.923-68.923h807.385c38 0 68.923 30.923 68.923 68.923v728.615c0 38-30.923 68.923-68.923 68.923zM108.308 782.769h78.769v-49.231c0-16.308 13.231-29.538 29.538-29.538s29.538 13.231 29.538 29.538v49.231h137.846v-49.231c0-16.308 13.231-29.538 29.538-29.538s29.538 13.231 29.538 29.538v49.231h137.846v-49.231c0-16.308 13.231-29.538 29.538-29.538s29.538 13.231 29.538 29.538v49.231h137.846v-49.231c0-16.308 13.231-29.538 29.538-29.538s29.538 13.231 29.538 29.538v49.231h78.769c5.346 0 9.846-4.5 9.846-9.846v-147.692h-827.077v147.692c0 5.346 4.5 9.846 9.846 9.846zM915.692 34.462h-807.385c-5.346 0-9.846 4.5-9.846 9.846v541.538h827.077v-541.538c0-5.346-4.5-9.846-9.846-9.846zM580.923 516.923h-137.846c-10.885 0-19.692-8.808-19.692-19.692v-137.846c0-10.885 8.808-19.692 19.692-19.692h137.846c10.885 0 19.692 8.808 19.692 19.692v137.846c0 10.885-8.808 19.692-19.692 19.692zM561.231 379.077h-98.462v98.462h98.462v-98.462zM580.923 280.615h-137.846c-10.885 0-19.692-8.808-19.692-19.692v-137.846c0-10.885 8.808-19.692 19.692-19.692h137.846c10.885 0 19.692 8.808 19.692 19.692v137.846c0 10.885-8.808 19.692-19.692 19.692zM561.231 142.769h-98.462v98.462h98.462v-98.462zM344.615 516.923h-137.846c-10.885 0-19.692-8.808-19.692-19.692v-137.846c0-10.885 8.808-19.692 19.692-19.692h137.846c10.885 0 19.692 8.808 19.692 19.692v137.846c0 10.885-8.808 19.692-19.692 19.692zM324.923 379.077h-98.462v98.462h98.462v-98.462zM344.615 280.615h-137.846c-10.885 0-19.692-8.808-19.692-19.692v-137.846c0-10.885 8.808-19.692 19.692-19.692h137.846c10.885 0 19.692 8.808 19.692 19.692v137.846c0 10.885-8.808 19.692-19.692 19.692zM324.923 142.769h-98.462v98.462h98.462v-98.462zM817.231 516.923h-137.846c-10.885 0-19.692-8.808-19.692-19.692v-137.846c0-10.885 8.808-19.692 19.692-19.692h137.846c10.885 0 19.692 8.808 19.692 19.692v137.846c0 10.885-8.808 19.692-19.692 19.692zM797.538 379.077h-98.462v98.462h98.462v-98.462zM817.231 280.615h-137.846c-10.885 0-19.692-8.808-19.692-19.692v-137.846c0-10.885 8.808-19.692 19.692-19.692h137.846c10.885 0 19.692 8.808 19.692 19.692v137.846c0 10.885-8.808 19.692-19.692 19.692zM797.538 142.769h-98.462v98.462h98.462v-98.462z" />
<glyph unicode="&#xe977;" glyph-name="byr" d="M530.846 576h-162.692v75.288h201.538c27.192 0 49.231 22.038 49.231 49.231s-22.038 49.231-49.231 49.231h-201.538v92.096h389.615c27.192 0 49.231 22.038 49.231 49.231s-22.038 49.231-49.231 49.231h-438.846c-27.192 0-49.231-22.038-49.231-49.231v-141.327h-66.154c-27.192 0-49.231-22.038-49.231-49.231s22.038-49.231 49.231-49.231h66.154v-75.288h-66.154c-27.192 0-49.231-22.038-49.231-49.231s22.038-49.231 49.231-49.231h66.154v-472.615c0-27.192 22.038-49.231 49.231-49.231h211.923c186.846 0 338.846 139.115 338.846 310.154 0 171.019-152 310.154-338.846 310.154zM530.846 54.154h-162.692v423.385h162.692c132.538 0 240.385-94.962 240.385-211.692s-107.846-211.692-240.385-211.692z" />
</font>
</defs>
</svg>
